<svg viewBox="0 0 1737 1737" fill="none" xmlns="http://www.w3.org/2000/svg">
<rect x="277.657" y="7.05249" width="1477.37" height="1477.37" rx="65.5262" transform="rotate(10.55 277.657 7.05249)" fill="#212121" stroke="#707070" stroke-width="11.9157"/>
<path d="M1384.74 1291.64C1340.93 1294.49 1316.96 1279.49 1300.24 1240.31C1262.68 1152.55 1219.04 1067.36 1177.67 981.16C1172.34 970.013 1166.71 958.998 1159.71 945.072C1077.53 1021.45 996.231 1093.63 918.332 1169.95C890.475 1197.22 864.814 1206.58 825.787 1187.83L1134.44 902.402L960.315 560.281C1001.29 559.939 1027.89 568.974 1045.51 608.891C1084.43 697.004 1129.56 782.38 1173.7 872.033C1247.47 804.625 1319.59 740.99 1389.04 673.821C1416.99 646.567 1442.97 639.067 1480.54 658.022C1443.02 692.321 1406.26 726.096 1369.37 759.563C1319.59 804.675 1270.42 850.565 1219.38 894.303C1201.19 909.898 1201.36 922.267 1211.34 942.064C1269.25 1057.15 1326.05 1173.08 1384.74 1291.64Z" fill="#707070"/>
<path d="M297.719 740.873C310.49 708.989 321.18 676.053 336.401 645.29C428.048 458.966 668.921 419.262 801.254 569.949C878.757 658.318 882.564 763.238 856.92 875.96L345.077 780.634C299.429 982.927 423.193 1133.25 621.82 1105.33C691.506 1095.53 739.691 1051.35 771.004 990.745C786.815 960.376 803.99 958.355 832.552 973.165C802.085 1050.63 754.448 1111.23 673.241 1139.58C551.448 1182 398.11 1132.38 331.744 1029.57C292.511 969.11 283.688 901.315 287.379 830.535C288.053 819.272 287.225 807.918 287.057 796.592C290.703 778.036 294.257 759.463 297.719 740.873ZM354.109 737.233L816.694 823.386C841.103 675.507 768.868 553.761 643.646 529.491C506.259 502.765 388.345 586.534 354.109 737.233Z" fill="#707070"/>
</svg>
