<svg viewBox="0 0 114 114" fill="none" xmlns="http://www.w3.org/2000/svg">
<path d="M79.6705 49.4903V45.4055C79.6705 42.6182 80.1485 41.1287 80.7794 40.3397C81.3028 39.6851 82.2896 39.0813 84.6284 39.0813H93.5092H96.0092V36.5813V21.845V19.6596L93.8434 19.3675L93.7622 19.3565C92.101 19.1322 88.6935 18.6722 82.4147 18.6722C75.4837 18.6722 69.5639 20.5087 65.4031 24.8365C61.2591 29.1468 59.2614 35.5129 59.2614 43.7157V49.4903H46.3523H43.8523V51.9903V67.3994V69.8994H46.3523H59.2614V111.127H10.3977C6.10276 111.127 2.625 107.649 2.625 103.354V10.8994C2.625 6.60447 6.10276 3.12671 10.3977 3.12671H102.852C107.143 3.12671 110.625 6.60528 110.625 10.8994V103.354C110.625 107.649 107.147 111.127 102.852 111.127H79.6705V69.8994H91.1722H93.3408L93.6471 67.7525L95.8455 52.3434L96.2525 49.4903H93.3705H79.6705Z" stroke="#591a5b" stroke-width="4"/>
</svg>
