<svg viewBox="0 0 1621 2432" fill="none" xmlns="http://www.w3.org/2000/svg">
<path d="M405.235 2431.25C512.703 2431.25 615.769 2388.56 691.76 2312.57C767.751 2236.58 810.442 2133.52 810.442 2026.05V1620.84H405.235C297.768 1620.84 194.702 1663.53 118.711 1739.52C42.7196 1815.51 0.0283203 1918.58 0.0283203 2026.05C0.0283203 2133.52 42.7196 2236.58 118.711 2312.57C194.702 2388.56 297.768 2431.25 405.235 2431.25Z" fill="#0ACF83"/>
<path d="M0.0283203 1215.63C0.0283203 1108.16 42.7196 1005.09 118.711 929.104C194.702 853.112 297.768 810.421 405.235 810.421H810.442V1620.83H405.235C297.768 1620.83 194.702 1578.14 118.711 1502.15C42.7196 1426.16 0.0283203 1323.1 0.0283203 1215.63Z" fill="#A259FF"/>
<path d="M0.0283203 405.218C0.0282875 297.805 42.6762 194.787 118.599 118.805C194.521 42.8235 297.506 0.0951466 404.919 0.0112305L810.125 0.0112305V810.425H405.235C297.768 810.425 194.702 767.734 118.711 691.743C42.7196 615.752 0.0283203 512.686 0.0283203 405.218Z" fill="#F24E1E"/>
<path d="M810.448 0.0112305H1215.66C1323.12 0.0112305 1426.19 42.7025 1502.18 118.694C1578.17 194.685 1620.86 297.751 1620.86 405.218C1620.86 512.686 1578.17 615.752 1502.18 691.743C1426.19 767.734 1323.12 810.425 1215.66 810.425H810.448V0.0112305Z" fill="#FF7262"/>
<path d="M1620.86 1215.63C1620.86 1323.1 1578.17 1426.16 1502.18 1502.15C1426.19 1578.14 1323.12 1620.83 1215.66 1620.83C1108.19 1620.83 1005.12 1578.14 929.131 1502.15C853.14 1426.16 810.448 1323.1 810.448 1215.63C810.448 1108.16 853.14 1005.09 929.131 929.104C1005.12 853.112 1108.19 810.421 1215.66 810.421C1323.12 810.421 1426.19 853.112 1502.18 929.104C1578.17 1005.09 1620.86 1108.16 1620.86 1215.63Z" fill="#1ABCFE"/>
</svg>
