<svg viewBox="0 0 14176 912" fill="none" xmlns="http://www.w3.org/2000/svg">
<path fill-rule="evenodd" clip-rule="evenodd" d="M13709 73.3477V520.77L13230.2 73.3477H12811.9V838.331H13259.2V386.543L13738 838.331H14156.2V73.3477H13709ZM13278.3 442.915L13733.2 872.149H14175.4V39.5293H13689.8V464.654L13234.9 39.5293H12792.8V872.149H13278.3V442.915Z" fill="#393939"/>
<path fill-rule="evenodd" clip-rule="evenodd" d="M12745.2 209.266C12769.5 274.472 12778.1 356.071 12778.1 454.205C12778.1 552.863 12769.5 634.895 12745.2 700.484C12720.7 766.739 12682 811.336 12627.6 841.791C12573.6 872.062 12502.5 889.266 12410.8 899.082C12319 908.92 12205.3 911.438 12065.5 911.438C11925.6 911.438 11811.8 908.92 11719.9 899.082C11628.1 889.266 11557 872.063 11502.9 841.794C11448.5 811.341 11409.8 766.747 11385.2 700.49C11360.9 634.898 11352.3 552.863 11352.3 454.205C11352.3 356.071 11360.9 274.468 11385.3 209.26C11409.8 143.411 11448.6 99.1973 11502.9 69.0443C11557 39.0676 11628.1 22.074 11719.9 12.3954C11811.8 2.696 11925.6 0.246094 12065.5 0.246094C12205.3 0.246094 12319 2.69599 12410.8 12.3955C12502.5 22.0743 12573.6 39.0682 12627.6 69.0464C12681.9 99.2016 12720.6 143.418 12745.2 209.266ZM12252.7 609.193C12263.1 573.38 12269.7 523.704 12269.7 454.205C12269.7 386.746 12263.1 338.298 12252.7 303.177C12242.5 268.524 12228 244.918 12210.2 228.382C12173.1 194 12122.2 190.106 12065.5 190.106C12031.9 190.106 12002.1 190.95 11976 196.371C11950 201.793 11929 211.563 11912.5 227.932C11881.8 258.334 11860.7 317.909 11860.7 454.205C11860.7 594.705 11882 654.757 11912.6 684.914C11929.2 701.187 11950.3 710.694 11976.7 715.849C12003 721.004 12033.2 721.578 12067.4 721.578C12123.3 721.578 12173.7 718.717 12210.4 684.543C12228 668.155 12242.4 644.485 12252.7 609.193ZM12759 454.205C12759 73.3504 12624.5 34.0645 12065.5 34.0645C11506 34.0645 11371.5 73.3504 11371.5 454.205C11371.5 837.242 11506 877.619 12065.5 877.619C12624.5 877.619 12759 837.242 12759 454.205ZM12288.9 454.205C12288.9 746.667 12177.2 755.397 12067.4 755.397C11931 755.397 11841.6 746.667 11841.6 454.205C11841.6 169.382 11931 156.287 12065.5 156.287C12177.2 156.287 12288.9 169.382 12288.9 454.205Z" fill="#393939"/>
<path fill-rule="evenodd" clip-rule="evenodd" d="M11317.9 303.607V73.3477H9974.81V303.607H10422.7V608.072H9974.81V838.331H11317.9V608.072H10870V303.607H11317.9ZM10889.1 337.425H11337V39.5293H9955.69V337.425H10403.6V574.254H9955.69V872.149H11337V574.254H10889.1V337.425Z" fill="#393939"/>
<path fill-rule="evenodd" clip-rule="evenodd" d="M8555.94 73.3477V303.607H9003.85V838.331H9451.14V303.607H9899.04V73.3477H8555.94ZM9470.26 337.425H9918.16V39.5293H8536.82V337.425H8984.73V872.149H9470.26V337.425Z" fill="#393939"/>
<path fill-rule="evenodd" clip-rule="evenodd" d="M7993.42 712.834L8037.84 837.24H8519.68L8197.63 73.3477H7418.42L7096.38 837.24H7578.21L7622.63 712.834H7993.42ZM7982.88 746.653L8027.3 871.058H8557.79L8207.22 39.5293H7408.83L7058.27 871.058H7588.75L7633.17 746.653H7982.88ZM7665.2 590.612L7808.34 184.658L7950.85 590.612H7665.2ZM7699.66 556.793H7916.47L7808.3 248.664L7699.66 556.793Z" fill="#393939"/>
<path fill-rule="evenodd" clip-rule="evenodd" d="M6886.41 624.394C7034.5 589.308 7071.82 513.229 7071.82 370.174C7071.82 131.185 7029.87 73.3477 6536.92 73.3477H5706.51V837.24H6154.42V651.723C6154.42 651.723 6225.37 651.723 6308.04 650.632L6507.93 837.24H7056.4L6854.65 630.989C6865.77 628.975 6876.34 626.779 6886.41 624.394ZM6913.01 651.591C6970.38 634.87 7011.67 610.078 7040.02 573.269C7079.12 522.507 7090.94 452.881 7090.94 370.174C7090.94 309.939 7088.47 254.142 7074.47 207.198C7059.91 158.332 7034.56 124.208 6995.5 100.196C6957 76.5218 6903.49 61.5946 6829.81 52.3847C6755.87 43.142 6660.27 39.5293 6536.92 39.5293H5687.39V871.058H6173.54V685.508C6180.75 685.488 6189.8 685.456 6200.28 685.405C6227.28 685.274 6263.83 685.016 6303.37 684.512L6503.19 871.058H7127.68L6913.01 651.591ZM6154.42 196.662H6451.17C6573.94 196.662 6601.7 216.305 6601.7 359.262C6601.7 513.131 6576.41 529.5 6451.17 529.5H6154.42V196.662ZM6173.54 495.682H6451.17C6482.45 495.682 6506.58 494.64 6525.41 490.928C6544.41 487.182 6556.08 481.026 6563.57 473.083C6575.74 460.161 6582.59 436.167 6582.59 359.262C6582.59 289.489 6575.54 266.544 6562.91 253.634C6555.09 245.643 6543.14 239.427 6524.28 235.558C6505.58 231.721 6481.75 230.48 6451.17 230.48H6173.54V495.682Z" fill="#393939"/>
<path fill-rule="evenodd" clip-rule="evenodd" d="M5641.85 303.607V73.3477H4298.76V838.331H5641.85V608.072H4746.66V510.949H5404.33V388.726H4746.66V303.607H5641.85ZM4765.78 337.425H5660.97V39.5293H4279.64V872.149H5660.97V574.254H4765.78V544.767H5423.45V354.908H4765.78V337.425Z" fill="#393939"/>
<path fill-rule="evenodd" clip-rule="evenodd" d="M3776.32 73.3477V520.77L3297.57 73.3477H2879.28V838.331H3326.56V386.543L3805.32 838.331H4223.61V73.3477H3776.32ZM3345.68 442.916L3800.53 872.149H4242.73V39.5293H3757.2V464.654L3302.31 39.5293H2860.16V872.149H3345.68V442.916Z" fill="#393939"/>
<path fill-rule="evenodd" clip-rule="evenodd" d="M2804.13 303.607V73.3477H1461.03V838.331H2804.13V608.072H1908.94V510.949H2566.6V388.726H1908.94V303.607H2804.13ZM1928.06 337.425H2823.25V39.5293H1441.91V872.149H2823.25V574.254H1928.06V544.767H2585.72V354.908H1928.06V337.425Z" fill="#393939"/>
<path fill-rule="evenodd" clip-rule="evenodd" d="M721.436 589.512V400.744H1426.6V434.562C1426.6 533.294 1417.99 616.279 1393.87 683.503C1369.52 751.385 1331.02 798.628 1276.57 831.714C1222.47 864.586 1151.3 884.308 1059.56 895.987C967.632 907.69 853.856 911.438 714.027 911.438C574.112 911.438 460.281 908.92 368.354 899.082C276.624 889.266 205.46 872.063 151.385 841.794C96.9803 811.341 58.2644 766.747 33.7244 700.49C9.43077 634.898 0.839844 552.863 0.839844 454.205C0.839844 356.071 9.43442 274.468 33.7588 209.26C58.322 143.411 97.0539 99.1973 151.434 69.0443C205.496 39.0676 276.647 22.074 368.37 12.3954C460.29 2.696 574.115 0.246094 714.027 0.246094C962.616 0.246094 1129.86 7.98398 1238.64 51.5524C1293.34 73.459 1335.29 105.128 1365.69 152.274C1396.56 200.144 1413.91 261.431 1421.95 336.615L1426.23 376.713H915.22L911.907 350.193C906.33 305.552 897.053 275.721 885.937 255.125C874.821 234.526 860.729 221.063 843.582 212.406C813.855 197.397 778.413 197.952 738.527 198.576C730.338 198.705 721.962 198.836 713.41 198.836C679.694 198.836 649.964 198.865 623.821 203.206C597.675 207.548 576.77 215.997 560.394 231.137C544.565 245.771 532.232 267.315 523.541 301.044C514.612 335.699 509.193 384.597 509.193 454.205C509.193 524.674 514.618 574.213 523.602 609.347C532.346 643.539 544.764 665.352 560.726 680.16C577.243 695.482 598.364 704.033 624.859 708.426C651.35 712.819 681.543 712.848 715.877 712.848C764.887 712.848 815.892 712.521 854.736 690.579C873.762 679.832 888.279 664.691 898.047 644.262C904.662 630.426 909.763 612.786 912.251 589.512H721.436ZM933.043 555.694C933.043 567.706 932.565 578.963 931.644 589.512C917.929 746.667 806.067 746.667 715.877 746.667C579.532 746.667 490.074 746.667 490.074 454.205C490.074 165.017 579.532 165.017 713.41 165.017C721.434 165.017 729.459 164.881 737.442 164.745C825.205 163.252 907.955 161.843 930.576 342.895H1403.16C1401.91 331.19 1400.42 319.922 1398.69 309.077C1359.34 63.095 1191.47 34.0645 714.027 34.0645C154.454 34.0645 19.959 73.3504 19.959 454.205C19.959 837.242 154.454 877.619 714.027 877.619C1256.11 877.619 1398.97 821.169 1407.1 468.38C1407.35 457.397 1407.48 446.127 1407.48 434.562H740.555V555.694H933.043Z" fill="#393939"/>
</svg>
