<svg viewBox="0 0 1780 1781" fill="none" xmlns="http://www.w3.org/2000/svg">
<path d="M1682.07 98.7839C1616.78 33.495 1538.22 0.895142 1446.3 0.895142H334.077C242.156 0.895142 163.596 33.495 98.3067 98.7839C33.0178 164.073 0.417969 242.633 0.417969 334.554V1446.78C0.417969 1538.7 33.0178 1617.26 98.3067 1682.55C163.596 1747.84 242.156 1780.44 334.077 1780.44H593.629C610.552 1780.44 623.289 1779.82 631.84 1778.66C641.789 1776.66 650.768 1771.36 657.314 1763.6C665.776 1754.7 670.052 1741.78 670.052 1724.86L669.428 1646.03C669.072 1595.8 668.894 1556.07 668.894 1526.68L642.172 1531.31C625.249 1534.43 603.872 1535.76 577.952 1535.41C550.936 1534.91 524.006 1532.2 497.433 1527.3C469.144 1522.08 442.514 1510.17 419.763 1492.56C395.936 1474.54 378.164 1449.68 368.814 1421.31L357.235 1394.58C347.476 1373.51 335.214 1353.68 320.716 1335.53C304.149 1313.89 287.315 1299.28 270.302 1291.53L262.286 1285.74C256.696 1281.74 251.612 1277.07 247.144 1271.85C242.877 1266.99 239.364 1261.53 236.723 1255.63C234.407 1250.2 236.366 1245.75 242.512 1242.27C248.747 1238.71 259.881 1237.02 276.181 1237.02L299.339 1240.58C314.749 1243.61 333.899 1252.87 356.612 1268.28C379.597 1283.95 398.798 1304.55 412.815 1328.58C430.63 1360.2 452.007 1384.34 477.124 1401C502.242 1417.56 527.538 1425.94 553.013 1425.94C578.487 1425.94 600.487 1423.98 619.103 1420.15C637.105 1416.43 654.598 1410.56 671.209 1402.69C678.157 1351.03 697.04 1311.13 727.948 1283.34C687.899 1279.41 648.208 1272.44 609.216 1262.49C571.165 1252.04 534.57 1236.87 500.283 1217.33C464.409 1197.8 432.723 1171.41 407.026 1139.66C382.353 1108.76 362.045 1068.23 346.19 1018.08C330.425 967.847 322.498 909.862 322.498 844.217C322.498 750.781 352.96 671.241 413.973 605.507C385.471 535.319 388.143 456.492 422.079 369.292C444.525 362.255 477.748 367.51 521.749 384.879C565.75 402.248 597.993 417.123 618.48 429.414C638.966 441.884 655.355 452.306 667.736 460.767C740.148 440.615 814.981 430.486 890.145 430.661C966.657 430.661 1040.76 440.726 1112.64 460.767L1156.64 432.977C1190.49 412.656 1226.19 395.596 1263.26 382.029C1304.24 366.53 1335.41 362.344 1357.14 369.292C1391.88 456.581 1394.91 535.319 1366.32 605.596C1427.33 671.241 1457.88 750.781 1457.88 844.306C1457.88 909.951 1449.95 968.114 1434.1 1018.62C1418.33 1069.21 1397.85 1109.74 1372.73 1140.29C1347.61 1170.84 1316.35 1196.4 1278.94 1217.33C1241.53 1238.18 1205.19 1253.23 1170.01 1262.49C1131.02 1272.47 1091.33 1279.47 1051.27 1283.42C1091.36 1318.16 1111.49 1372.94 1111.49 1447.85V1724.86C1111.49 1737.95 1113.36 1748.55 1117.28 1756.66C1119.08 1760.56 1121.65 1764.06 1124.83 1766.96C1128.01 1769.85 1131.74 1772.07 1135.8 1773.49C1144.35 1776.52 1151.84 1778.48 1158.43 1779.19C1165.02 1780.08 1174.46 1780.35 1186.75 1780.35H1446.3C1538.22 1780.35 1616.78 1747.75 1682.07 1682.46C1747.27 1617.26 1779.96 1538.61 1779.96 1446.69V334.554C1779.96 242.633 1747.36 164.073 1682.07 98.7839Z" fill="#5a5a5a"/>
</svg>
