<svg viewBox="0 0 1893 1893" fill="none" xmlns="http://www.w3.org/2000/svg">
<rect x="7.60676" y="8.05403" width="1877.03" height="1877.03" rx="83.2554" fill="#212121" stroke="transparent" stroke-width="15.1373"/>
<path d="M582.734 513.23L909.273 399.002L897.478 459.84L867.037 488.397L800.611 616.902L613.751 696.364L385.939 806.245L279.142 872.049L147.851 982.241L163.057 896.261L245.011 755.34L353.651 647.321L582.734 513.23Z" fill="#00D623cc"/>
<path d="M646.068 762.345L775.977 662.415H800.611L817.377 705.242L854.494 740.931L938.007 795.179L984.403 823.73L1015.81 842.289L1029.47 850.499L1035.91 877.467L1059.45 909.868L1077.97 930.195L1101.72 942.27L1095.75 955.067L1077.19 1019.31L1015.81 1079.27L881.618 1166.35L755.991 1189.19L646.068 1173.49L582.734 1134.94L536.145 1079.27L514.732 1035.01V982.241L536.145 920.805L646.068 762.345Z" fill="#00D623cc"/>
<path d="M1113.92 326.95H1142.11L1176.96 333.998L1204.18 353.576L1223.17 361.015L1246.66 368.846L1295.21 381.963L1308.92 383.334L1316.94 381.963L1338.48 372.566L1354.53 364.148L1361.19 353.576H1398.97L1410.33 357.1L1425.99 365.518L1438.91 375.698L1452.62 390.577H1472.98L1484.72 403.89H1490.79L1508.02 405.456L1515.26 409.763L1522.12 419.944L1513.5 429.855L1481.81 427.811L1429.54 396.415L1393.32 381.228L1366.31 386.047L1322.79 395.977L1303.22 396.999L1242.47 384.587L1228.16 381.228L1192.39 380.06L1171.36 383.725L1147.99 384.587L1125.27 383.725L1017.8 358.862L1053.82 338.305L1072.03 340.263L1086.32 345.549L1104.72 333.998L1113.92 326.95Z" fill="#00D623cc"/>
<path d="M1070.55 1813.81C1080.72 1810.9 1089.5 1802.17 1089.5 1794.29C1089.5 1790.77 1086.6 1780.59 1083.07 1771.58C1076.08 1754.41 1064.11 1708.95 1064.11 1701.4C1064.11 1697.59 1064.39 1697.32 1070.21 1700.5L1076.64 1704.03V1695.86C1075.75 1688.31 1074.01 1680.99 1071.66 1673.71C1066.13 1657.11 1065.57 1656.83 1030.28 1654.76L1006.4 1653.58L997.675 1662.03C993.034 1667 988.671 1672.2 985.148 1678.36C981.345 1685.91 979.891 1697.32 982.24 1699.89C982.799 1700.78 988.671 1699.89 995.047 1698.43C998.85 1697.26 1002.6 1696.7 1006.68 1696.42C1006.68 1696.7 1000.25 1701.96 992.139 1707.49C957.186 1733.72 944.938 1749.72 944.938 1770.13C944.938 1791.38 965.015 1807.99 996.501 1812.97C1018.03 1816.16 1059.98 1817.05 1070.49 1813.86L1070.55 1813.81ZM1544.45 1779.13C1553.18 1768.62 1552 1757.88 1540.93 1745.63C1534.5 1739.2 1527.23 1733.67 1519.06 1729.3C1510.9 1724.94 1502.73 1719.96 1494.57 1714.76C1488.14 1710.12 1467.78 1698.15 1449.1 1687.98C1435.68 1680.71 1422.59 1673.1 1409.79 1664.99L1404.53 1660.91V1580.82C1404.53 1501.91 1404.25 1500.74 1400.17 1501.91C1379.76 1507.45 1345.98 1510.08 1303.19 1509.18L1256.89 1508.62L1263.6 1524.95C1276.13 1555.82 1282.56 1597.21 1282.56 1644.69C1282.56 1662.47 1281.38 1668.85 1277.02 1681.38C1274.67 1687.47 1272.66 1693.62 1270.59 1699.72C1269.69 1702.35 1272.94 1704.36 1284.85 1707.89C1293.57 1710.51 1306.38 1713.14 1313.71 1713.98L1327.13 1715.44L1325.68 1728.86C1324.22 1744.01 1325.96 1760.01 1329.76 1764.98C1332.11 1767.89 1340.83 1769.07 1381.32 1770.8C1411.91 1772.25 1445.13 1775.44 1471.3 1779.25C1494.01 1782.77 1518.51 1785.68 1525.78 1785.68C1538.02 1785.96 1539.2 1785.4 1544.4 1779.25L1544.45 1779.13ZM1078.15 1642.84C1079.33 1641.95 1081.06 1626.23 1081.67 1607.61C1084.02 1555.49 1086.04 1547.88 1112.27 1489.05C1133.8 1441.01 1145.21 1396.16 1144.31 1364.39L1143.75 1345.43L1135.59 1353.32C1118.7 1370.21 1130.33 1343.7 1150.46 1320.1C1165.62 1302.04 1170.88 1292.14 1173.17 1276.14C1174.34 1269.71 1176.69 1266.52 1186.59 1258.97C1224.17 1230.45 1251.24 1194.33 1269.02 1150.03C1273.11 1139.52 1283.56 1103.73 1292.34 1070.51C1308.67 1009.05 1317.4 982.537 1325.28 971.185C1328.19 966.822 1329.37 965.928 1328.81 968.836C1324.17 986.34 1322.71 993.611 1318.91 1016.32C1316.56 1030.58 1312.2 1058.54 1309.29 1078.06C1303.75 1117.99 1297.94 1143.6 1290.05 1163.4L1284.79 1176.82L1298.78 1212.95C1313.32 1249.91 1320.03 1276.76 1321.2 1302.65L1322.1 1317.19L1310.74 1319.54C1295.59 1322.17 1282.5 1330.61 1273.44 1342.86C1263.54 1357.12 1258.01 1368.81 1260.64 1371.38C1261.81 1372.56 1276.07 1375.19 1292.4 1377.2C1317.73 1380.11 1327.35 1380.11 1360.85 1378.1C1375.39 1377.54 1389.71 1376.08 1403.97 1374.01C1407.16 1372.84 1410.4 1366.46 1415.6 1349.85C1427.57 1311.71 1429.86 1298.29 1428.41 1271.5L1427.24 1247.9L1433.33 1240.02C1447.59 1221.95 1458.67 1189.35 1463.31 1151.15C1468.84 1104.57 1458.67 1006.98 1439.71 923.089C1430.7 883.158 1426.9 859.278 1426.9 841.83V826.395L1412.64 827.849C1361.36 833.385 1299.34 831.931 1261.47 824.046C1240.78 819.963 1188.66 804.528 1177.31 799.551L1168.3 795.468L1167.13 805.646C1166.23 811.183 1165.39 816.72 1164.22 822.536C1162.49 828.632 1163.05 830.086 1173.84 840.599C1187.26 854.301 1191.34 861.292 1191.34 870.575C1191.34 876.392 1188.16 881.089 1171.83 897.979C1159.86 910.506 1144.76 923.928 1133.07 931.478L1114.11 944.285L1105.95 972.527C1076.81 1075.93 1071.27 1170 1090.51 1237.28L1095.15 1254.17L1085.81 1265.8C1050.86 1309.75 1030.17 1343.25 1026.98 1361.93C1026.42 1365.74 1023.46 1377.93 1020.55 1389.34C1013 1418.19 1007.13 1460.42 1004.55 1506.16C1002.82 1544.3 1000.19 1582.78 997.004 1620.92L995.55 1632.27L1010.09 1636.64C1018.26 1639.27 1030.5 1642.17 1037.49 1643.35C1050.58 1645.36 1074.8 1644.8 1078.54 1642.79L1078.15 1642.84ZM1360.96 1482.62C1383.67 1481.16 1404.36 1477.64 1408.44 1474.17C1410.18 1473 1412.25 1466.9 1412.81 1460.75L1414.26 1449.68L1396.2 1453.76C1381.94 1456.67 1367.68 1458.4 1353.36 1459.58C1318.96 1461.03 1284.35 1460.14 1250.23 1456.67C1238.88 1454.94 1238.88 1454.94 1242.35 1469.76C1245.26 1480.83 1245.87 1481.39 1275.57 1483.46C1295.36 1485.19 1323.05 1484.91 1360.91 1482.56L1360.96 1482.62ZM1342.01 1431.95C1371.7 1429.32 1408.72 1422.95 1415.99 1419.14C1418.34 1417.97 1420.36 1413.61 1421.25 1408.63L1423.88 1393.19L1425.33 1385.92L1418.06 1387.38C1385.74 1394.09 1361.24 1396.1 1312.31 1396.1C1264.55 1396.1 1259.01 1395.82 1246.49 1391.46C1241.84 1389.45 1236.59 1388.27 1231.33 1387.94C1229.32 1389.11 1228.98 1405.72 1230.77 1417.35C1231.95 1424.35 1233.12 1425.52 1240.11 1427.53C1262.26 1433.63 1299.56 1435.08 1342.06 1431.62L1342.01 1431.95ZM1531.09 938.524C1545.35 931.254 1567.5 897.755 1575.66 871.246C1578.01 861.907 1582.65 853.183 1589.36 845.912C1610.89 822.032 1628.68 778.635 1628.96 748.938C1628.96 702.632 1602.73 684.848 1564.59 704.646C1559.61 706.995 1555.58 708.728 1554.97 708.169C1552.96 706.156 1563.69 695.642 1576.84 687.477C1594 676.124 1597.25 669.413 1597.25 645.253C1597.25 624.841 1592.27 608.566 1580.64 590.503C1575.38 582.617 1573.37 577.416 1574.21 574.173L1579.46 554.655C1586.73 528.705 1584.11 499.009 1572.75 480.107C1555.86 451.585 1535.17 437.604 1506.31 435.255L1489.42 434.08L1499.32 445.154C1528.74 476.919 1543 516.793 1537.18 550.908C1534.28 568.412 1531.65 571.88 1514.76 578.591L1504.86 582.673L1506.03 596.095C1508.05 617.962 1504.3 633.956 1490.32 663.373C1483.33 678.249 1478.07 691.615 1478.69 693.069C1480.42 698.047 1499.66 707.33 1514.81 711.133L1529.69 714.656L1520.35 717.844C1508.1 721.647 1505.47 727.183 1505.47 747.261C1505.47 765.604 1508.1 773.21 1521.47 793.287C1527.57 802.011 1531.65 811.071 1532.26 816.272C1533.44 824.437 1533.16 824.996 1526.45 827.345C1518.9 829.359 1511.01 830.869 1503.13 831.148C1475.72 832.882 1473.71 833.777 1461.46 845.409C1450.39 855.923 1450.11 856.482 1450.11 868.115C1450.11 884.109 1456.2 916.49 1460.01 920.852C1464.99 926.109 1492.61 939.811 1503.41 941.824C1512.75 944.173 1522.64 942.998 1531.09 938.636V938.524ZM1127.65 916.713C1145.43 902.732 1159.41 888.751 1167.24 876.783C1172.22 869.513 1172.5 868.059 1170.15 861.907C1166.07 852.567 1139.28 828.408 1124.4 821.138C1114.5 816.775 1103.99 813.588 1093.25 812.134L1074.91 809.785L1063.56 795.524C1039.95 766.387 1026.87 743.681 1008.19 699.668C991.859 662.366 977.598 640.556 954.893 618.969C945.553 610.244 938.898 602.974 939.457 602.974C940.632 602.974 951.705 608.511 964.512 615.222C985.763 626.574 988.392 627.469 998.011 626.015C1032.68 621.933 1063.28 582.058 1074.35 526.133C1077.54 510.418 1083.97 494.368 1090.68 484.748C1090.96 484.469 1104.38 493.193 1120.1 504.546C1160.03 532.788 1168.75 537.15 1191.46 538.045C1206.33 538.604 1214.78 537.486 1241.56 531.054C1298.66 517.073 1360.41 511.537 1397.99 516.514C1419.24 519.422 1449.83 528.761 1472.53 539.499C1494.96 550.013 1499.32 550.572 1506.59 544.141C1512.69 538.884 1512.69 538.045 1512.69 518.527C1512.41 489.67 1501.9 458.52 1485.9 439.897C1477.74 430.277 1454.75 414.563 1431.99 402.595C1423.82 398.232 1415.66 393.87 1407.83 389.508C1397.04 383.077 1384.84 383.972 1351.63 392.696C1313.15 402.595 1302.97 402.595 1259.01 391.242C1221.71 381.902 1219.42 381.623 1182.68 387.439C1163.16 390.347 1114.22 388.613 1097.89 384.251C1089.73 381.902 1081.56 379.609 1073.73 376.701C1059.47 371.165 1034.7 370.27 1012.27 374.352C967.699 382.238 933.921 406.397 921.673 439.281C915.242 455.891 916.137 463.777 924.581 468.978C938.003 477.422 955.732 500.463 955.732 509.467C955.732 510.027 951.369 506.28 946.392 501.023C933.865 487.936 922.512 482.064 909.09 482.064C891.306 482.623 875.311 493.137 868.041 509.132C864.238 519.31 860.771 529.824 858.142 540.618C849.977 570.314 842.707 586.085 827.272 607.056C813.57 626.015 811.557 634.46 816.478 655.711C828.726 709.287 849.977 730.875 938.786 781.263C985.372 807.771 1009.25 822.648 1026.76 835.734C1040.18 845.633 1040.46 846.248 1039.28 853.798C1036.66 871.302 1047.73 890.205 1069.59 905.64C1075.13 909.443 1078.6 913.526 1078.6 916.434C1078.6 921.691 1093.47 928.961 1104.21 928.961C1110.31 928.961 1115.01 926.333 1127.53 916.713H1127.65ZM1486.8 818.509C1520.57 819.684 1522.31 817.055 1504.3 796.083C1485.34 774.216 1480.14 756.488 1487.13 736.97L1490.04 729.421L1478.07 723.604C1473.99 721.591 1469.91 719.522 1465.82 718.068C1463.81 725.953 1461.74 733.503 1460.01 741.388C1455.65 759.173 1450.39 805.199 1450.11 824.717C1450.11 826.451 1453.02 825.891 1457.99 822.704C1464.99 818.621 1468.51 818.062 1486.85 818.621L1486.8 818.509ZM1373.49 816.775C1393.9 815.601 1414.88 814.147 1420.41 813.252L1430.59 811.798L1431.77 778.299C1433.5 730.539 1440.49 702.297 1461.18 657.109C1475.72 625.064 1482.15 597.102 1478.97 576.13C1477.79 567.126 1477.23 566.511 1464.99 561.254C1442.56 552.25 1419.24 546.098 1395.36 542.295C1372.37 539.108 1304.76 540.841 1279.43 545.819C1268.91 547.552 1249.73 551.635 1236.92 554.823C1205.16 562.093 1188.27 561.254 1164.11 550.74C1140.23 540.226 1125.07 530.663 1110.81 517.241C1099.46 506.727 1098.28 506.168 1095.38 509.691C1093.03 512.319 1091.85 520.205 1091.01 537.094C1090.12 563.043 1086.04 576.689 1074.68 595.033C1072.06 598.836 1070.04 602.918 1068.25 607.001C1068.25 607.895 1076.98 618.074 1087.77 629.147C1125.07 667.903 1143.42 677.802 1172.83 675.732C1182.45 674.838 1189.16 675.173 1189.16 676.292C1189.16 678.641 1170.2 693.461 1162.37 697.543C1158.57 699.557 1157.73 701.626 1158.29 705.988L1162.93 736.579C1165.56 754.083 1167.58 762.193 1170.2 764.541C1177.19 770.358 1213.32 789.037 1236.03 798.32C1265.72 810.288 1282.05 814.65 1304.76 816.664C1332.72 819.012 1333.28 819.012 1373.49 816.664V816.775ZM1132.62 784.73C1133.18 783.836 1131.17 766.946 1127.37 747.428C1122.72 720.92 1120.1 711.301 1117.19 708.672C1115.17 706.939 1104.38 699.333 1093.59 691.503C1079.33 681.325 1065.9 669.972 1053.38 658.004L1033.3 638.207L1022.51 643.743L1011.15 649.839C1012.05 654.481 1013.78 658.843 1015.8 662.926C1018.98 669.916 1025.41 687.085 1030.06 701.067C1042.3 737.474 1051.92 754.978 1076.08 786.688L1085.09 798.656L1102.26 801.284C1111.87 802.738 1121.49 804.807 1124.12 805.646C1128.2 807.38 1128.76 806.541 1129.94 797.202C1130.5 793.119 1131.39 788.757 1132.57 784.674L1132.62 784.73ZM1501.67 422.392C1516.55 420.938 1519.18 418.869 1512.75 412.214C1508.66 408.131 1499.32 407.852 1491.77 411.319C1486.8 413.668 1485.68 413.053 1477.79 404.608C1469.63 395.604 1469.07 395.268 1458.83 396.443C1449.49 397.617 1448.04 397.338 1446.87 393.535C1443.06 387.103 1438.7 381.567 1433.44 376.645C1426.73 369.095 1418.57 363.223 1409.28 359.476C1391.22 352.486 1381.04 353.381 1363.82 363C1313.99 390.067 1316.06 389.788 1267.96 377.54C1223.11 366.187 1189.61 354.555 1178.82 347.229C1169.81 341.133 1150.57 334.422 1134.52 332.353C1122.56 330.619 1115.01 333.247 1103.65 342.531L1097.56 347.508L1103.09 357.128C1110.64 370.55 1109.81 371.388 1098.45 361.49C1086.2 351.311 1071.66 344.321 1062.32 343.985C1055.61 343.985 1035.82 352.709 1033.47 356.512C1032.57 357.687 1038.72 359.141 1046.89 359.7C1055.33 360.595 1066.97 363.503 1074.85 366.691C1095.26 375.415 1105.72 378.323 1124.35 380.113C1144.76 382.126 1181.72 379.833 1186.09 376.31C1188.44 374.296 1194.81 373.961 1208.23 375.135C1226.02 376.31 1233.29 378.043 1275.51 389.396C1300.01 396.107 1317.18 395.492 1346.31 387.663C1359.73 383.86 1376.62 380.113 1383.61 379.218C1395.58 378.043 1397.88 378.659 1416.55 387.103C1446.25 400.525 1462.02 408.97 1470.75 416.8C1479.47 424.349 1480.64 424.349 1501.62 422.616L1501.67 422.392ZM1335.63 371.444L1353.41 362.105L1352.86 344.041C1352.58 331.514 1351.96 319.266 1351.4 307.075L1349.95 288.452L1332.16 302.153C1321.65 310.318 1311.47 316.414 1307.11 317.309C1294.3 319.658 1231.11 317.309 1225.23 314.121C1217.35 308.305 1210.08 301.874 1203.37 294.883L1187.04 278.273L1186.76 288.172C1186.76 293.429 1186.2 302.433 1185.02 307.969C1183.57 318.483 1183.57 318.763 1194.92 333.024C1201.02 340.909 1206 347.9 1206 348.739C1206 354.275 1290.16 380.504 1309.12 380.784C1315.22 380.784 1322.82 378.155 1335.63 371.444ZM1301.85 305.285C1322.82 301.202 1333 286.047 1340.89 247.626C1349.05 206.242 1353.14 141.313 1349.33 113.63C1345.81 88.5754 1317.85 77.5023 1264.55 79.2359C1231.33 80.4104 1217.63 83.5981 1206.28 93.2172C1199.29 99.0334 1199.29 99.6486 1196.1 127.276C1190.28 180.292 1199.01 255.735 1214.16 283.978C1221.43 297.679 1227.86 302.601 1241.23 304.949C1256.38 307.578 1288.71 307.578 1301.8 305.229L1301.85 305.285Z" fill="#D4CBCB"/>
<path d="M991.243 641.397L1046.91 619.529L1138.35 692.422L1153.59 778.568L1143.65 820.979L1120.46 811.039L1080.7 803.087L1060.16 778.568L1034.98 740.796L1012.45 692.422L991.243 641.397Z" fill="#00D623cc"/>
<path d="M1455.58 703.932L1497.69 720.104V746.383L1500.05 770.979L1517.23 799.954L1525.32 818.148L1517.23 822.528L1476.8 825.897L1438.71 852.177L1441.07 799.954L1447.13 738.634L1455.58 703.932Z" fill="#121212"/>
<path d="M1223 1418.79V1376.4L1252.05 1383.55L1316.83 1386.41L1432.09 1378.79V1402.6L1419.71 1488.81L1414.94 1571.21L1417.32 1654.09L1444 1668.37L1582.6 1747.44L1598.8 1769.35L1582.6 1786.49L1537.83 1792.21L1453.53 1782.68L1303.02 1775.06L1252.05 1740.77L1266.34 1680.28L1273.49 1635.98L1269.2 1582.64L1245.86 1505.48L1230.62 1464.52L1223 1418.79Z" fill="#00D623cc"/>
<path d="M999.802 1837.69C976.481 1833.6 952.321 1822.53 938.62 1810.28C929.28 1800.66 924.079 1787.58 923.744 1774.16C923.744 1760.45 930.734 1741.22 941.807 1722.03C948.518 1711.24 953.775 1699.61 957.522 1687.36C959.871 1678.92 964.793 1665.21 968.595 1656.49L975.306 1640.5L977.04 1533.62C977.935 1474.51 979.669 1419.76 981.123 1411.26C984.926 1386.76 991.301 1362.88 999.746 1339.62L1006.18 1324.18L996.838 1318.65C988.393 1313.39 981.402 1306.12 953.719 1273.18C919.661 1232.97 874.809 1210.82 811.278 1203.27C790.586 1201.26 769.614 1199.75 748.642 1198.91C655.415 1194.55 602.119 1175.03 554.079 1127.83C518.231 1092.6 499.608 1051.49 492.058 990.926C481.88 909.052 470.527 867.108 449.555 833.05C444.298 824.605 438.482 816.72 431.771 809.449L423.326 801.005L404.703 812.973C394.525 819.684 380.208 828.128 373.217 831.931C349.897 844.738 327.75 858.999 306.499 874.434C254.377 912.296 197.557 959.776 166.406 990.926C152.425 1004.91 145.155 1011 141.911 1010.44C120.66 1007.26 136.934 915.204 171.607 845.857C215.9 756.432 290.448 673.999 376.685 618.353C447.486 572.607 561.964 509.691 614.925 487.545C708.991 448.229 830.74 405.67 914.069 382.965C931.573 377.988 942.311 373.625 949.581 368.704C965.911 357.351 981.906 351.815 1000.25 351.535C1015.68 351.255 1017.14 350.976 1032.01 341.021C1049.52 329.668 1054.72 329.053 1072.22 335.205L1083.58 339.287L1097.56 329.668L1111.54 320.329L1131.62 320.608C1147.05 320.888 1154.04 320.329 1160.75 317.421C1169.2 313.618 1169.48 313.059 1171.83 299.077C1177.08 268.766 1177.64 253.61 1174.46 235.267C1170.37 211.107 1169.81 117.321 1173.9 98.9216C1178.26 79.1241 1181.17 75.0416 1196.04 67.7713C1218.19 56.9778 1234.8 53.79 1272.94 53.79C1319.53 53.79 1343.13 60.2214 1360.63 77.1108C1376.35 92.2665 1378.97 127.779 1370.81 211.107C1365.83 259.147 1365.27 272.569 1366.73 303.999C1367.29 324.076 1368.74 343.034 1369.35 345.663C1370.53 350.64 1371.7 350.92 1388.59 351.199C1405.2 351.479 1408.11 352.374 1423.83 360.539C1438.98 368.424 1450.33 378.043 1452.68 385.034C1452.96 386.488 1455.59 386.488 1460.23 385.034C1469.24 382.406 1477.12 385.314 1483.55 393.199C1487.36 398.177 1489.65 399.015 1498.43 399.015C1510.4 399.015 1514.76 401.923 1524.66 416.52C1529.3 423.231 1535.73 428.152 1543 431.396C1559.33 439.561 1581.48 462.267 1589.92 480.33C1603.01 507.119 1605.64 538.269 1597.47 566.231C1594.56 576.745 1594.56 577.025 1600.66 587.203C1613.47 609.07 1618.16 635.858 1612.91 658.564L1610 671.986L1618.72 680.71C1662.12 724.108 1655.69 794.909 1602.73 858.104C1597.19 864.815 1590.48 875.273 1587.85 881.705C1577.68 908.772 1565.99 927.731 1550.89 943.446L1535.45 959.161H1519.74C1504.02 959.161 1481.88 953.904 1468.45 946.913C1462.92 944.005 1462.64 944.005 1463.81 947.472C1467.34 960.279 1476.06 1012.4 1478.97 1041.26C1483.61 1085.55 1482.16 1149.92 1476.06 1177.6C1471.7 1198.02 1464.09 1217.81 1453.91 1236.16C1448.1 1245.5 1447.82 1247.51 1448.94 1258.86C1450.67 1274.86 1446.92 1301.7 1440.49 1319.43C1432.61 1340.12 1429.7 1349.74 1427.96 1360.2C1426.51 1369.2 1426.51 1369.2 1432.94 1369.2C1441.39 1369.2 1446.03 1374.18 1446.03 1384.08C1446.03 1388.44 1442.22 1412.04 1437.58 1436.2C1424.78 1504.09 1423.88 1511.64 1423.88 1577.47C1423.6 1645.36 1423.6 1644.75 1439.04 1654.92L1473.71 1677.35C1503.41 1697.15 1535.45 1713.48 1568.95 1726.28C1617.61 1745.52 1624.32 1750.44 1624.32 1766.77C1624.32 1774.04 1622.86 1776.67 1616.77 1782.49C1598.14 1800.55 1561.4 1804.64 1487.41 1796.75C1448.94 1793.23 1410.24 1791.21 1371.76 1791.21C1269.81 1789.76 1254.93 1786.24 1241.57 1760.9C1234.02 1746.36 1235.47 1727.4 1245.93 1696.25C1250.57 1682.55 1254.65 1668.57 1258.18 1654.31C1265.17 1620.53 1260.52 1580.32 1244.19 1534.91L1230.21 1496.15C1216.51 1456.84 1208.96 1384.86 1217.13 1368.59C1218.58 1365.4 1221.21 1364.79 1228.2 1365.06L1236.92 1365.96L1244.19 1350.8C1249.73 1338.84 1255.83 1331.01 1272.44 1314.4L1293.69 1293.15L1292.51 1279.44C1291.62 1266.36 1274.45 1202.83 1272.1 1203.11C1271.21 1203.11 1266.56 1209.54 1261.31 1217.65C1248.5 1236.88 1220.26 1266.58 1204.21 1277.37C1197.22 1282.02 1191.4 1287.55 1191.4 1289.34C1191.12 1297.23 1184.41 1312.66 1176.25 1323.4C1168.36 1333.91 1167.8 1335.65 1168.97 1344.93C1170.99 1358.63 1166.63 1402.59 1161.43 1425.63C1156.78 1442.52 1150.35 1459.13 1142.19 1475.13C1122.11 1516.79 1106.95 1554.04 1103.15 1571.26C1100.24 1587.87 1098.79 1604.76 1097.89 1621.37C1097 1641.17 1094.99 1660.4 1093.53 1664.49C1091.52 1670.02 1091.52 1674.39 1093.25 1682.83C1094.71 1688.93 1095.6 1702.63 1095.27 1713.42C1094.99 1728.3 1096.16 1737.92 1100.52 1755.37C1108.07 1785.06 1109.53 1803.74 1106.06 1814.81C1103.71 1821.8 1101.42 1824.43 1093.53 1828.24C1076.03 1837.24 1026.53 1842.22 999.746 1837.58L999.802 1837.69ZM1070.55 1813.81C1080.73 1810.9 1089.51 1802.17 1089.51 1794.29C1089.51 1790.77 1086.6 1780.59 1083.07 1771.58C1076.08 1754.41 1064.12 1708.95 1064.12 1701.4C1064.12 1697.6 1064.4 1697.32 1070.21 1700.5L1076.64 1704.03V1695.86C1075.75 1688.31 1074.01 1680.99 1071.67 1673.72C1066.13 1657.11 1065.57 1656.83 1030.28 1654.76L1006.4 1653.58L997.677 1662.03C993.035 1667 988.673 1672.21 985.149 1678.36C981.346 1685.91 979.892 1697.32 982.241 1699.89C982.8 1700.78 988.673 1699.89 995.048 1698.43C998.851 1697.26 1002.6 1696.7 1006.68 1696.42C1006.68 1696.7 1000.25 1701.96 992.14 1707.49C957.187 1733.72 944.939 1749.72 944.939 1770.13C944.939 1791.38 965.016 1807.99 996.502 1812.97C1018.03 1816.16 1059.98 1817.05 1070.49 1813.86L1070.55 1813.81ZM1544.46 1779.13C1553.18 1768.62 1552.01 1757.88 1540.93 1745.63C1534.5 1739.2 1527.23 1733.67 1519.07 1729.3C1510.9 1724.94 1502.74 1719.97 1494.57 1714.76C1488.14 1710.12 1467.78 1698.15 1449.1 1687.98C1435.68 1680.71 1422.6 1673.1 1409.79 1664.99L1404.53 1660.91V1580.82C1404.53 1501.91 1404.25 1500.74 1400.17 1501.91C1379.76 1507.45 1345.98 1510.08 1303.2 1509.18L1256.89 1508.62L1263.6 1524.95C1276.13 1555.83 1282.56 1597.21 1282.56 1644.69C1282.56 1662.47 1281.38 1668.85 1277.02 1681.38C1274.67 1687.47 1272.66 1693.62 1270.59 1699.72C1269.7 1702.35 1272.94 1704.36 1284.85 1707.89C1293.58 1710.51 1306.38 1713.14 1313.71 1713.98L1327.13 1715.44L1325.68 1728.86C1324.22 1744.01 1325.96 1760.01 1329.76 1764.98C1332.11 1767.89 1340.83 1769.07 1381.32 1770.8C1411.91 1772.26 1445.13 1775.44 1471.31 1779.25C1494.01 1782.77 1518.51 1785.68 1525.78 1785.68C1538.02 1785.96 1539.2 1785.4 1544.4 1779.25L1544.46 1779.13ZM1078.15 1642.84C1079.33 1641.95 1081.06 1626.23 1081.68 1607.61C1084.02 1555.49 1086.04 1547.88 1112.27 1489.05C1133.8 1441.01 1145.21 1396.16 1144.31 1364.39L1143.75 1345.43L1135.59 1353.32C1118.7 1370.21 1130.33 1343.7 1150.46 1320.1C1165.62 1302.04 1170.88 1292.14 1173.17 1276.14C1174.34 1269.71 1176.69 1266.52 1186.59 1258.97C1224.17 1230.45 1251.24 1194.33 1269.02 1150.03C1273.11 1139.52 1283.57 1103.73 1292.35 1070.51C1308.68 1009.05 1317.4 982.537 1325.29 971.185C1328.19 966.822 1329.37 965.928 1328.81 968.836C1324.17 986.34 1322.71 993.611 1318.91 1016.32C1316.56 1030.58 1312.2 1058.54 1309.29 1078.06C1303.75 1117.99 1297.94 1143.6 1290.05 1163.4L1284.8 1176.82L1298.78 1212.95C1313.32 1249.92 1320.03 1276.76 1321.2 1302.65L1322.1 1317.19L1310.74 1319.54C1295.59 1322.17 1282.5 1330.61 1273.44 1342.86C1263.54 1357.12 1258.01 1368.81 1260.64 1371.38C1261.81 1372.56 1276.07 1375.19 1292.4 1377.2C1317.74 1380.11 1327.35 1380.11 1360.85 1378.1C1375.39 1377.54 1389.71 1376.08 1403.97 1374.01C1407.16 1372.84 1410.4 1366.46 1415.6 1349.85C1427.57 1311.71 1429.87 1298.29 1428.41 1271.5L1427.24 1247.9L1433.33 1240.02C1447.59 1221.95 1458.67 1189.35 1463.31 1151.15C1468.85 1104.57 1458.67 1006.98 1439.71 923.089C1430.7 883.159 1426.9 859.279 1426.9 841.83V826.395L1412.64 827.849C1361.36 833.385 1299.34 831.931 1261.47 824.046C1240.78 819.963 1188.66 804.528 1177.31 799.551L1168.3 795.468L1167.13 805.646C1166.23 811.183 1165.4 816.72 1164.22 822.536C1162.49 828.632 1163.05 830.086 1173.84 840.6C1187.26 854.301 1191.34 861.292 1191.34 870.575C1191.34 876.392 1188.16 881.089 1171.83 897.979C1159.86 910.506 1144.76 923.928 1133.07 931.478L1114.11 944.285L1105.95 972.527C1076.81 1075.93 1071.27 1170 1090.51 1237.28L1095.15 1254.17L1085.81 1265.8C1050.86 1309.75 1030.17 1343.25 1026.98 1361.93C1026.42 1365.74 1023.46 1377.93 1020.55 1389.34C1013 1418.19 1007.13 1460.42 1004.56 1506.16C1002.82 1544.3 1000.19 1582.78 997.005 1620.92L995.551 1632.27L1010.09 1636.64C1018.26 1639.27 1030.5 1642.17 1037.5 1643.35C1050.58 1645.36 1074.8 1644.8 1078.54 1642.79L1078.15 1642.84ZM1360.97 1482.62C1383.67 1481.17 1404.36 1477.64 1408.45 1474.17C1410.18 1473 1412.25 1466.9 1412.81 1460.75L1414.26 1449.68L1396.2 1453.76C1381.94 1456.67 1367.68 1458.4 1353.36 1459.58C1318.97 1461.03 1284.35 1460.14 1250.23 1456.67C1238.88 1454.94 1238.88 1454.94 1242.35 1469.76C1245.26 1480.83 1245.87 1481.39 1275.57 1483.46C1295.37 1485.19 1323.05 1484.91 1360.91 1482.56L1360.97 1482.62ZM1342.01 1431.95C1371.7 1429.32 1408.73 1422.95 1416 1419.14C1418.34 1417.97 1420.36 1413.61 1421.25 1408.63L1423.88 1393.19L1425.34 1385.92L1418.07 1387.38C1385.74 1394.09 1361.25 1396.1 1312.31 1396.1C1264.55 1396.1 1259.01 1395.82 1246.49 1391.46C1241.85 1389.45 1236.59 1388.27 1231.33 1387.94C1229.32 1389.11 1228.98 1405.72 1230.77 1417.35C1231.95 1424.35 1233.12 1425.52 1240.11 1427.53C1262.26 1433.63 1299.56 1435.08 1342.06 1431.62L1342.01 1431.95ZM801.435 1169.22C875.984 1147.68 973.573 1084.43 1053.38 1005.24C1079.33 979.294 1082.51 975.826 1085.98 964.194L1090.62 949.318C1091.18 948.144 1086.54 946.13 1080.45 944.676C1064.45 940.873 1052.2 931.59 1052.2 923.145C1052.2 918.168 1049.3 913.246 1040.85 904.186C1027.15 888.751 1023.68 882.04 1022.23 867.22L1021.05 855.252L1004.72 843.62C995.384 836.909 962.779 818.845 928.106 801.396C901.877 788.589 875.984 774.608 850.65 759.452C821.513 739.935 801.995 716.614 790.922 688.987C788.908 683.45 786.28 678.808 785.385 678.808C783.036 678.808 717.492 742.004 689.529 771.7C620.518 844.514 573.038 907.71 543.006 966.263C535.456 980.804 527.291 998.029 524.942 1004.4L520.58 1016.04L525.837 1035.55C529.025 1046.07 535.736 1063.24 540.993 1073.42C559.336 1109.54 581.203 1131.35 617.33 1149.14C656.086 1168.38 690.424 1175.09 747.803 1174.19C778.674 1173.91 787.734 1173.02 801.38 1168.94L801.435 1169.22ZM213.048 913.75C261.982 870.352 329.54 822.871 412.309 773.657C466.5 741.333 675.94 636.473 772.354 593.635C789.859 585.749 805.574 578.479 807.308 577.64C809.041 576.466 814.019 563.938 818.66 549.957C839.073 485.308 849.251 472.501 886.218 464.056C890.86 462.882 892.034 461.428 892.034 456.786C892.034 448.341 897.85 428.823 902.828 420.099C906.63 413.388 906.63 413.109 903.387 414.003C901.374 414.563 889.126 418.086 876.319 421.889C698.645 473.172 543.397 541.289 409.401 626.351C266.4 717.229 183.967 826.171 160.087 956.644L158.353 966.263L175.858 949.094C185.197 939.475 202.087 923.76 213.16 914.141L213.048 913.75ZM1531.09 938.524C1545.35 931.254 1567.5 897.755 1575.66 871.247C1578.01 861.907 1582.65 853.183 1589.36 845.912C1610.89 822.032 1628.68 778.635 1628.96 748.938C1628.96 702.632 1602.73 684.848 1564.59 704.646C1559.61 706.995 1555.58 708.728 1554.97 708.169C1552.96 706.156 1563.69 695.642 1576.84 687.477C1594.01 676.124 1597.25 669.413 1597.25 645.253C1597.25 624.841 1592.27 608.567 1580.64 590.503C1575.38 582.617 1573.37 577.416 1574.21 574.173L1579.46 554.655C1586.74 528.706 1584.11 499.009 1572.75 480.107C1555.86 451.585 1535.17 437.604 1506.31 435.255L1489.43 434.08L1499.32 445.154C1528.74 476.919 1543 516.794 1537.19 550.908C1534.28 568.412 1531.65 571.88 1514.76 578.591L1504.86 582.673L1506.04 596.095C1508.05 617.962 1504.3 633.957 1490.32 663.373C1483.33 678.249 1478.07 691.615 1478.69 693.069C1480.42 698.047 1499.66 707.33 1514.82 711.133L1529.69 714.656L1520.35 717.844C1508.1 721.647 1505.48 727.184 1505.48 747.261C1505.48 765.604 1508.1 773.21 1521.47 793.287C1527.57 802.011 1531.65 811.071 1532.26 816.272C1533.44 824.437 1533.16 824.997 1526.45 827.345C1518.9 829.359 1511.01 830.869 1503.13 831.148C1475.72 832.882 1473.71 833.777 1461.46 845.409C1450.39 855.923 1450.11 856.482 1450.11 868.115C1450.11 884.109 1456.21 916.49 1460.01 920.852C1464.99 926.109 1492.61 939.811 1503.41 941.824C1512.75 944.173 1522.65 942.998 1531.09 938.636V938.524ZM1127.65 916.714C1145.43 902.732 1159.41 888.751 1167.24 876.783C1172.22 869.513 1172.5 868.059 1170.15 861.907C1166.07 852.568 1139.28 828.408 1124.4 821.138C1114.5 816.776 1103.99 813.588 1093.25 812.134L1074.91 809.785L1063.56 795.524C1039.96 766.387 1026.87 743.681 1008.19 699.668C991.86 662.366 977.599 640.556 954.894 618.969C945.554 610.244 938.899 602.974 939.459 602.974C940.633 602.974 951.706 608.511 964.513 615.222C985.764 626.574 988.393 627.469 998.012 626.015C1032.69 621.933 1063.28 582.058 1074.35 526.133C1077.54 510.418 1083.97 494.368 1090.68 484.748C1090.96 484.469 1104.38 493.193 1120.1 504.546C1160.03 532.788 1168.75 537.15 1191.46 538.045C1206.33 538.604 1214.78 537.486 1241.57 531.054C1298.67 517.073 1360.41 511.537 1397.99 516.514C1419.24 519.422 1449.83 528.761 1472.54 539.499C1494.96 550.013 1499.32 550.572 1506.59 544.141C1512.69 538.884 1512.69 538.045 1512.69 518.527C1512.41 489.67 1501.9 458.52 1485.9 439.897C1477.74 430.278 1454.75 414.563 1431.99 402.595C1423.83 398.232 1415.66 393.87 1407.83 389.508C1397.04 383.077 1384.85 383.972 1351.63 392.696C1313.15 402.595 1302.97 402.595 1259.01 391.242C1221.71 381.902 1219.42 381.623 1182.68 387.439C1163.16 390.347 1114.22 388.613 1097.89 384.251C1089.73 381.902 1081.56 379.609 1073.73 376.701C1059.47 371.165 1034.7 370.27 1012.27 374.352C967.701 382.238 933.922 406.398 921.674 439.281C915.243 455.891 916.138 463.777 924.582 468.978C938.004 477.422 955.733 500.463 955.733 509.467C955.733 510.027 951.371 506.28 946.393 501.023C933.866 487.936 922.513 482.064 909.091 482.064C891.307 482.623 875.312 493.137 868.042 509.132C864.239 519.31 860.772 529.824 858.143 540.618C849.978 570.314 842.708 586.085 827.273 607.057C813.571 626.015 811.558 634.46 816.479 655.711C828.727 709.288 849.978 730.875 938.787 781.263C985.373 807.772 1009.25 822.648 1026.76 835.734C1040.18 845.633 1040.46 846.248 1039.28 853.798C1036.66 871.302 1047.73 890.205 1069.6 905.64C1075.13 909.443 1078.6 913.526 1078.6 916.434C1078.6 921.691 1093.48 928.961 1104.21 928.961C1110.31 928.961 1115.01 926.333 1127.53 916.714H1127.65ZM1486.8 818.509C1520.58 819.684 1522.31 817.055 1504.3 796.083C1485.34 774.217 1480.14 756.488 1487.13 736.97L1490.04 729.421L1478.07 723.604C1473.99 721.591 1469.91 719.522 1465.83 718.068C1463.81 725.953 1461.74 733.503 1460.01 741.389C1455.65 759.173 1450.39 805.199 1450.11 824.717C1450.11 826.451 1453.02 825.891 1458 822.704C1464.99 818.621 1468.51 818.062 1486.85 818.621L1486.8 818.509ZM1373.49 816.776C1393.91 815.601 1414.88 814.147 1420.41 813.252L1430.59 811.798L1431.77 778.299C1433.5 730.539 1440.49 702.297 1461.18 657.109C1475.72 625.064 1482.16 597.102 1478.97 576.13C1477.79 567.126 1477.23 566.511 1464.99 561.254C1442.56 552.25 1419.24 546.098 1395.36 542.295C1372.37 539.108 1304.76 540.841 1279.43 545.819C1268.91 547.552 1249.73 551.635 1236.92 554.823C1205.16 562.093 1188.27 561.254 1164.11 550.74C1140.23 540.226 1125.07 530.663 1110.81 517.241C1099.46 506.727 1098.29 506.168 1095.38 509.691C1093.03 512.32 1091.85 520.205 1091.02 537.094C1090.12 563.044 1086.04 576.689 1074.69 595.033C1072.06 598.836 1070.04 602.918 1068.25 607.001C1068.25 607.895 1076.98 618.074 1087.77 629.147C1125.07 667.903 1143.42 677.802 1172.83 675.733C1182.45 674.838 1189.16 675.173 1189.16 676.292C1189.16 678.641 1170.21 693.461 1162.38 697.543C1158.57 699.557 1157.73 701.626 1158.29 705.988L1162.94 736.579C1165.56 754.084 1167.58 762.193 1170.21 764.542C1177.2 770.358 1213.32 789.037 1236.03 798.32C1265.73 810.288 1282.06 814.65 1304.76 816.664C1332.72 819.013 1333.28 819.013 1373.49 816.664V816.776ZM1132.62 784.73C1133.18 783.836 1131.17 766.946 1127.37 747.428C1122.72 720.92 1120.1 711.301 1117.19 708.672C1115.18 706.939 1104.38 699.333 1093.59 691.503C1079.33 681.325 1065.91 669.972 1053.38 658.004L1033.3 638.207L1022.51 643.743L1011.15 649.839C1012.05 654.481 1013.78 658.843 1015.8 662.926C1018.98 669.916 1025.42 687.085 1030.06 701.067C1042.3 737.474 1051.92 754.978 1076.08 786.688L1085.09 798.656L1102.26 801.284C1111.88 802.738 1121.49 804.808 1124.12 805.646C1128.21 807.38 1128.76 806.541 1129.94 797.202C1130.5 793.119 1131.39 788.757 1132.57 784.675L1132.62 784.73ZM1501.67 422.392C1516.55 420.938 1519.18 418.869 1512.75 412.214C1508.66 408.131 1499.32 407.852 1491.77 411.319C1486.8 413.668 1485.68 413.053 1477.79 404.608C1469.63 395.604 1469.07 395.268 1458.83 396.443C1449.5 397.617 1448.04 397.338 1446.87 393.535C1443.06 387.103 1438.7 381.567 1433.44 376.645C1426.73 369.095 1418.57 363.223 1409.28 359.476C1391.22 352.486 1381.04 353.381 1363.82 363C1313.99 390.067 1316.06 389.788 1267.96 377.54C1223.11 366.187 1189.61 354.555 1178.82 347.229C1169.81 341.133 1150.58 334.422 1134.53 332.353C1122.56 330.619 1115.01 333.248 1103.65 342.531L1097.56 347.508L1103.1 357.128C1110.65 370.55 1109.81 371.388 1098.45 361.49C1086.21 351.311 1071.67 344.321 1062.33 343.985C1055.61 343.985 1035.82 352.709 1033.47 356.512C1032.57 357.687 1038.73 359.141 1046.89 359.7C1055.34 360.595 1066.97 363.503 1074.85 366.691C1095.27 375.415 1105.72 378.323 1124.35 380.113C1144.76 382.126 1181.73 379.833 1186.09 376.31C1188.44 374.297 1194.81 373.961 1208.23 375.135C1226.02 376.31 1233.29 378.043 1275.51 389.396C1300.01 396.107 1317.18 395.492 1346.31 387.663C1359.74 383.86 1376.62 380.113 1383.62 379.218C1395.58 378.044 1397.88 378.659 1416.56 387.103C1446.25 400.525 1462.02 408.97 1470.75 416.8C1479.47 424.349 1480.65 424.349 1501.62 422.616L1501.67 422.392ZM1335.63 371.444L1353.42 362.105L1352.86 344.041C1352.58 331.514 1351.96 319.266 1351.4 307.075L1349.95 288.452L1332.16 302.153C1321.65 310.318 1311.47 316.414 1307.11 317.309C1294.3 319.658 1231.11 317.309 1225.24 314.121C1217.35 308.305 1210.08 301.874 1203.37 294.883L1187.04 278.273L1186.76 288.172C1186.76 293.429 1186.2 302.433 1185.03 307.969C1183.57 318.483 1183.57 318.763 1194.92 333.024C1201.02 340.909 1206 347.9 1206 348.739C1206 354.275 1290.16 380.504 1309.12 380.784C1315.22 380.784 1322.82 378.155 1335.63 371.444ZM1301.85 305.285C1322.82 301.202 1333 286.047 1340.89 247.626C1349.05 206.242 1353.14 141.313 1349.33 113.63C1345.81 88.5754 1317.85 77.5023 1264.55 79.2359C1231.33 80.4104 1217.63 83.5981 1206.28 93.2172C1199.29 99.0334 1199.29 99.6486 1196.1 127.276C1190.28 180.293 1199.01 255.735 1214.16 283.978C1221.43 297.679 1227.86 302.601 1241.23 304.949C1256.39 307.578 1288.71 307.578 1301.8 305.229L1301.85 305.285Z" fill="#006510"/>
</svg>
