<svg viewBox="0 0 1545 346" fill="none" xmlns="http://www.w3.org/2000/svg">
<path d="M1345.86 0.37491C1312.22 0.487806 1278.11 3.14997 1251.44 8.53812C1203.26 18.2267 1169.76 60.8728 1163.07 102.072C1155.51 150.017 1155.57 200.829 1163.24 243.966C1173.2 297.244 1215.8 329.338 1258.39 337.471C1319.06 348.929 1376.03 348.607 1448.15 336.932C1491.34 329.824 1533.95 289.436 1539.25 245.406C1546.8 186.443 1546.74 143.008 1539.06 96.4726C1532.52 53.9 1502.32 20.1373 1437.69 7.50054C1412.73 2.71761 1379.5 0.262014 1345.86 0.37491ZM17.8384 10.3836C8.51904 10.3953 0.351685 19.3781 0.361222 26.9984L0.438715 329.995C1.58241 338.747 6.32883 343.765 15.3393 343.754L119.221 343.422C127.974 343.411 135.804 335.773 135.795 328.719L135.114 25.7236C135.155 17.2794 128.13 10.2456 118.502 10.2576L17.8384 10.3836ZM434.975 10.5655C430.753 10.5707 427.347 15.9483 424.838 26.97L374.026 245.96C371.566 255.128 361.211 254.876 359.244 246.28L304.665 26.6176C302.647 18.6909 297.871 12.4467 293.082 12.4527L178.24 12.8981C166.089 12.9133 161.674 27.2704 165.604 41.3732L236.41 289.575C246.597 324.832 269.19 342.531 297.92 342.495L396.673 342.371C419.534 342.343 444.361 319.727 450.816 294.335L516.461 34.7998C519.279 23.5203 522.119 10.4564 511.101 10.4702L434.975 10.5655ZM982.139 10.8864C921.486 10.9623 870.786 51.354 859.273 109.19C851.7 146.734 849.25 204.823 859.442 244.045C877.6 312.553 916.772 344.48 990.401 344.645L1114.6 344.993C1125.87 344.978 1130.58 340.271 1130.57 334.916L1130.5 277.092C1130.49 269.781 1125.76 262.718 1117.01 262.729L1037.96 262.526C1010.06 262.561 994.468 242.029 991.356 224.27C986.533 196.627 987.699 157.957 992.154 138.488C996.098 121.853 1012.96 95.522 1036.95 95.492L1118.51 95.3899C1127.52 95.3786 1134.69 89.2055 1134.68 81.8942L1134.71 25.9811C1134.7 15.8379 1126.6 10.7056 1115.89 10.719L982.139 10.8864ZM609.957 12.3578C575.562 12.4008 546.84 42.0973 546.886 78.8084L547.325 268.973C547.37 305.066 578.726 342.244 609.464 342.206L811.797 341.952C818.285 341.944 821.949 337.741 821.942 332.386L822.165 269.735C822.159 264.947 816.719 260.792 810.489 260.799L690.014 260.347C681.569 260.357 678.445 257.331 678.44 253.624L678.405 225.365C678.399 220.577 681.833 216.612 687.445 216.605L779.359 216.49C790.069 216.477 791.726 214.549 791.716 206.619L791.644 148.796C791.636 142.875 789.932 140.853 783.187 140.862L689.864 140.979C681.678 140.989 678.599 139.289 678.593 134.758L678.555 103.784C678.55 100.129 681.382 98.0488 686.995 98.0417L818.933 97.8766C823.052 97.82 825.568 95.5465 825.563 91.6334L825.774 19.4288C825.768 14.3315 822.151 12.3939 817.62 12.3996L609.957 12.3578ZM1351.6 84.8408C1362.11 84.8276 1372.3 85.9685 1381.47 88.2225C1400.94 92.9865 1409.17 98.6239 1412.29 123.18C1416.86 158.186 1416.9 186.684 1412.41 220.827C1409.6 241.117 1399.4 252.34 1385.6 255.756C1364.71 261.136 1333.69 261.175 1315.61 255.843C1299.23 251.075 1289.93 245.154 1286.81 219.878C1281.97 181.473 1283.33 149.011 1286.39 126.455C1289.75 102.148 1301.97 91.9776 1319.73 88.2998C1330.3 86.021 1341.09 84.8539 1351.6 84.8408Z" fill="#A13030"/>
</svg>
