<svg viewBox="0 0 114 114" fill="none" xmlns="http://www.w3.org/2000/svg">
<path d="M36.1382 94.5813H37.6382V93.0813V44.3269V42.8269H36.1382H20.9859H19.4859V44.3269V93.0813V94.5813H20.9859H36.1382ZM92.895 94.5813H94.395V93.0813V66.3413C94.395 59.744 93.6993 53.5578 90.8284 49.0048C87.8576 44.2932 82.7582 41.6147 74.7174 41.6147C68.9799 41.6147 64.5512 43.891 61.6764 46.7739V44.3269V42.8269H60.1764H45.6405H44.1405V44.3269V93.0813V94.5813H45.6405H60.7825H62.2825V93.0813V68.9609C62.2825 65.8097 62.597 63.0179 63.6873 61.0425C64.2131 60.09 64.913 59.3406 65.858 58.8175C66.8115 58.2896 68.103 57.9436 69.879 57.9436C71.5822 57.9436 72.7285 58.3389 73.5288 58.898C74.3323 59.4593 74.9157 60.2758 75.3351 61.3379C76.208 63.5487 76.253 66.4775 76.253 69.3718V93.0813V94.5813H77.753H92.895ZM10.6926 2.12671H103.147C107.994 2.12671 111.92 6.05218 111.92 10.8994V103.354C111.92 108.201 107.994 112.127 103.147 112.127H10.6926C5.84539 112.127 1.91992 108.201 1.91992 103.354V10.8994C1.91992 6.05218 5.84539 2.12671 10.6926 2.12671ZM18.0734 28.5223C18.0734 34.224 22.6937 38.8568 28.408 38.8568C34.1062 38.8568 38.7374 34.2246 38.7374 28.5223C38.7374 22.8246 34.1057 18.1929 28.408 18.1929C22.7006 18.1929 18.0734 22.8189 18.0734 28.5223Z" stroke="#504027" stroke-width="3"/>
</svg>
