<svg viewBox="0 0 465 465" fill="none" xmlns="http://www.w3.org/2000/svg">
<path fill-rule="evenodd" clip-rule="evenodd" d="M271.867 141.102C253.76 133.342 233.759 131.126 214.392 134.733L196.152 36.8141C234.885 29.5991 274.888 34.0318 311.102 49.5516C347.316 65.0714 378.114 90.9815 399.602 124.005C421.09 157.028 432.304 195.683 431.824 235.079C431.344 274.475 419.192 312.845 396.905 345.335C374.619 377.825 343.198 402.977 306.617 417.61C270.036 432.243 229.936 435.699 191.391 427.543C152.845 419.386 117.584 399.982 90.0661 371.785C62.548 343.588 44.0093 307.865 36.7943 269.132L134.713 250.892C138.321 270.258 147.59 288.12 161.349 302.219C175.108 316.317 192.739 326.019 212.012 330.097C231.284 334.176 251.334 332.447 269.624 325.13C287.915 317.815 303.625 305.239 314.769 288.994C325.912 272.748 331.988 253.564 332.227 233.866C332.468 214.167 326.862 194.84 316.117 178.329C305.373 161.817 289.974 148.861 271.867 141.102Z" fill="#007DFC" fill-opacity="0.7"/>
<path fill-rule="evenodd" clip-rule="evenodd" d="M98.2333 55.0541C100.629 67.913 100.468 81.1177 97.7598 93.9145C95.0519 106.711 89.85 118.849 82.4511 129.636C75.0523 140.422 65.6014 149.645 54.6379 156.779C43.6744 163.913 31.4132 168.818 18.5544 171.213L36.7943 269.132C62.5121 264.341 87.0345 254.532 108.961 240.264C130.888 225.997 149.79 207.55 164.587 185.977C179.386 164.405 189.789 140.129 195.205 114.535C200.621 88.9414 200.943 62.5319 196.152 36.8141L98.2333 55.0541Z" fill="#007DFC" fill-opacity="0.7"/>
</svg>
