<svg viewBox="0 0 1134 146" fill="none" xmlns="http://www.w3.org/2000/svg">
<path d="M0.144531 142.07H49.9702V68.5024L99.8883 142.07H124.8L174.72 68.5024V142.07H224.546V4.16797L162.265 4.16797L112.345 73.1188L62.5211 4.16797L0.144531 4.16797L0.144531 142.07Z" fill="#555555"/>
<path d="M329.519 0.78125C281.41 0.88444 242.045 15.8632 242.235 68.09V78.1447C242.045 130.268 281.41 145.352 329.519 145.453C377.533 145.352 416.901 130.268 416.717 78.1447V68.09C416.717 15.9664 377.634 0.78125 329.519 0.78125ZM366.889 74.7594C367.175 97.3326 349.866 101.437 329.519 101.744C309.081 101.437 291.774 97.3326 292.059 74.7594V71.374C291.774 48.9021 309.081 44.7981 329.519 44.4903C349.866 44.7981 367.175 48.9021 366.889 71.374V74.7594Z" fill="#555555"/>
<path d="M556.297 73.3241C556.297 87.1751 548.977 98.564 536.05 98.564H481.472V48.0824H536.05C548.977 48.0824 556.297 59.3681 556.297 73.3241ZM431.645 4.37333V142.273H545.368C580.455 142.787 606.51 110.775 606.225 73.3241C606.51 35.667 580.455 3.8592 545.368 4.37333L431.645 4.37333Z" fill="#555555"/>
<path d="M744.942 74.8639C745.227 97.5385 727.936 101.438 707.572 101.746C687.14 101.438 669.932 97.5385 670.117 74.8639V4.16797L620.29 4.16797V78.2493C620.105 130.373 659.658 145.353 707.572 145.455C755.502 145.353 795.055 130.373 794.87 78.2493V4.16797L744.942 4.16797V74.8639Z" fill="#555555"/>
<path d="M817.301 4.16797V142.07H966.884V98.3605H867.128V4.16797L817.301 4.16797Z" fill="#555555"/>
<path d="M983.893 142.275H1133.48V106.877H1033.72V89.2279H1133.48V57.3187H1033.72V39.6696H1133.48V4.375L983.893 4.375V142.275Z" fill="#555555"/>
</svg>
