<svg viewBox="0 0 1225 1225" fill="none" xmlns="http://www.w3.org/2000/svg">
<rect x="5.46074" y="5.33965" width="1213.79" height="1213.79" rx="53.8377" fill="#212121" stroke="transparent" stroke-width="9.78867"/>
<path d="M609.767 137.23C609.792 137.152 609.818 137.075 609.843 136.998C610.813 140.044 612.151 143.735 613.97 147.887C619.145 159.698 628.22 175.248 643.829 190.278L645.208 188.847L643.83 190.278C740.343 283.21 834.316 431.115 837.195 609.995C840.617 823.151 692.061 959.574 660.166 986.377C658.696 983.306 656.29 980.876 652.962 979.49C652.903 979.458 652.793 979.397 652.638 979.305C652.397 979.161 652.051 978.942 651.623 978.64C650.767 978.037 649.585 977.101 648.262 975.763C645.62 973.092 642.395 968.802 640.064 962.307L638.15 962.994L640.064 962.306C635.314 949.082 631.688 931.557 629.24 917.205C628.019 910.045 627.096 903.705 626.475 899.128C626.165 896.839 625.93 894.993 625.772 893.706C625.693 893.063 625.633 892.56 625.592 892.211L625.579 892.102C625.565 891.979 625.554 891.881 625.545 891.807L625.533 891.696L625.529 891.665L625.528 891.656L625.527 891.646C624.689 884.14 618.347 878.491 610.823 878.491H610.604H610.587L610.57 878.491C602.939 878.623 596.659 884.536 596.066 892.143L596.066 892.151L596.063 892.178L596.058 892.252L596.054 892.292L596.036 892.525C596.017 892.76 595.988 893.102 595.951 893.543C595.876 894.424 595.764 895.699 595.615 897.309C595.316 900.528 594.866 905.082 594.256 910.49C593.035 921.31 591.178 935.524 588.618 949.284C585.664 965.146 581.484 980.766 578.831 990.036C549.937 965.716 483.519 904.911 445.402 831.089C420.089 782.065 406.735 727.419 399.715 684.971C396.207 663.758 394.285 645.617 393.24 632.785C392.718 626.369 392.415 621.281 392.242 617.802C392.156 616.062 392.103 614.724 392.071 613.824C392.055 613.373 392.044 613.032 392.038 612.805C392.035 612.691 392.032 612.606 392.031 612.55L392.03 612.51L392.031 612.451C392.033 612.382 392.035 612.277 392.038 612.138C392.045 611.861 392.056 611.445 392.073 610.897C392.106 609.802 392.16 608.177 392.248 606.069C392.424 601.851 392.732 595.697 393.26 587.964C394.316 572.495 396.252 550.714 399.771 525.476C406.813 474.97 420.179 410.745 445.444 355.567L443.896 354.859L445.444 355.567C480.869 278.198 517.652 240.232 571.097 185.067C578.912 177 587.084 168.566 595.66 159.586C603.857 151.002 607.842 143.081 609.767 137.23ZM574.736 862.061L575.045 861.566V860.982V245.401V240.202L571.518 244.022C538.197 280.106 512.596 313.484 487.827 367.579C443.14 465.174 438.198 596.776 437.837 608.769L437.835 608.835L437.837 608.901C438.207 619.468 442.96 724.957 487.012 810.278L488.329 809.598L487.012 810.278C506.794 848.59 535.161 883.33 560.986 910.418L563.952 913.529L564.476 909.263C566.117 895.91 566.906 885.99 566.934 885.617C567.594 877.119 570.347 869.069 574.736 862.061ZM629.249 1122.62C629.248 1122.69 629.247 1122.76 629.246 1122.83L607.722 1116.38C607.719 1116.23 607.716 1116.08 607.712 1115.92C607.685 1114.66 607.64 1112.83 607.573 1110.53C607.439 1105.92 607.214 1099.44 606.85 1091.92C606.124 1076.89 604.843 1057.69 602.624 1041.06C601.137 1029.9 598.552 1020.2 596.34 1013.3C595.233 1009.85 594.218 1007.08 593.477 1005.18C593.107 1004.23 592.804 1003.49 592.593 1002.99C592.584 1002.97 592.574 1002.94 592.565 1002.92C592.603 1002.8 592.646 1002.66 592.693 1002.51C592.921 1001.77 593.251 1000.68 593.662 999.3C594.484 996.536 595.63 992.582 596.927 987.811C599.521 978.275 602.727 965.456 605.162 952.358C607.844 937.946 609.764 923.217 611.013 912.101C611.062 911.672 611.109 911.248 611.155 910.83C611.586 913.642 612.076 916.697 612.625 919.918C615.177 934.877 619.03 953.526 624.223 967.991C627.817 978.009 633.119 984.656 637.561 988.81C639.78 990.885 641.781 992.335 643.243 993.274C643.409 993.381 643.567 993.48 643.718 993.574C643.631 993.723 643.54 993.881 643.445 994.047C642.601 995.523 641.461 997.647 640.266 1000.26C637.882 1005.47 635.244 1012.7 634.326 1020.67C632.086 1040.08 630.81 1066.32 630.092 1087.66C629.733 1098.34 629.513 1107.8 629.383 1114.6C629.318 1118 629.276 1120.73 629.249 1122.62Z" fill="#016D18" stroke="#016D18" stroke-width="4.06652"/>
</svg>
