<svg viewBox="0 0 8475 786" fill="none" xmlns="http://www.w3.org/2000/svg">
<path fill-rule="evenodd" clip-rule="evenodd" d="M8425.63 176.162C8462.02 230.896 8474.89 299.391 8474.89 381.766C8474.89 464.58 8462.03 533.438 8425.68 588.494C8388.96 644.109 8331.03 681.544 8249.64 707.109C8168.75 732.518 8062.3 746.959 7925.11 755.199C7787.62 763.457 7617.39 765.57 7408.17 765.57C7198.71 765.57 7028.31 763.457 6890.69 755.199C6753.37 746.959 6646.84 732.518 6565.88 707.11C6484.44 681.548 6426.48 644.115 6389.75 588.499C6353.38 533.441 6340.52 464.58 6340.52 381.766C6340.52 299.391 6353.38 230.893 6389.8 176.157C6426.57 120.883 6484.55 83.7694 6565.96 58.4587C6646.89 33.296 6753.4 19.0315 6890.71 10.9072C7028.32 2.76545 7198.72 0.708984 7408.17 0.708984C7617.38 0.708984 7787.61 2.76545 7925.08 10.9073C8062.27 19.0317 8168.7 33.2965 8249.57 58.4605C8330.92 83.773 8388.87 120.889 8425.63 176.162ZM7688.36 511.863C7703.93 481.802 7713.88 440.103 7713.88 381.766C7713.88 325.14 7703.97 284.473 7688.41 254.991C7673.06 225.903 7651.38 206.088 7624.72 192.208C7569.28 163.347 7492.95 160.079 7408.17 160.079C7357.8 160.079 7313.2 160.787 7274.18 165.337C7235.15 169.889 7203.73 178.09 7179.04 191.83C7133.17 217.35 7101.53 267.358 7101.53 381.766C7101.53 499.702 7133.36 550.11 7179.28 575.425C7204.06 589.084 7235.68 597.064 7275.15 601.392C7314.62 605.719 7359.76 606.201 7410.94 606.201C7494.64 606.201 7570.05 603.799 7625.05 575.113C7651.42 561.357 7673.01 541.488 7688.36 511.863ZM8446.27 381.766C8446.27 62.0733 8244.93 29.0964 7408.17 29.0964C6570.48 29.0964 6369.14 62.0733 6369.14 381.766C6369.14 703.29 6570.48 737.183 7408.17 737.183C8244.93 737.183 8446.27 703.29 8446.27 381.766ZM7742.5 381.766C7742.5 627.26 7575.33 634.588 7410.94 634.588C7206.83 634.588 7072.91 627.26 7072.91 381.766C7072.91 142.683 7206.83 131.691 7408.17 131.691C7575.33 131.691 7742.5 142.683 7742.5 381.766Z" fill="#393939"/>
<path fill-rule="evenodd" clip-rule="evenodd" d="M5620.3 62.0749V437.645L4903.6 62.0749H4277.41V704.208H4947.01V324.974L5663.71 704.208H6289.89V62.0749H5620.3ZM4975.63 372.293L5656.55 732.595H6318.52V33.6875H5591.68V390.54L4910.7 33.6875H4248.79V732.595H4975.63V372.293Z" fill="#393939"/>
<path fill-rule="evenodd" clip-rule="evenodd" d="M4177.52 176.162C4213.92 230.896 4226.79 299.391 4226.79 381.766C4226.79 464.58 4213.93 533.438 4177.58 588.494C4140.86 644.109 4082.93 681.544 4001.54 707.109C3920.64 732.518 3814.2 746.959 3677 755.199C3539.52 763.457 3369.28 765.57 3160.06 765.57C2950.61 765.57 2780.2 763.457 2642.59 755.199C2505.26 746.959 2398.73 732.518 2317.78 707.11C2236.34 681.548 2178.38 644.115 2141.64 588.499C2105.27 533.441 2092.41 464.58 2092.41 381.766C2092.41 299.391 2105.28 230.893 2141.69 176.157C2178.46 120.883 2236.45 83.7694 2317.85 58.4587C2398.79 33.296 2505.3 19.0315 2642.61 10.9072C2780.21 2.76545 2950.61 0.708984 3160.06 0.708984C3369.28 0.708984 3539.5 2.76545 3676.98 10.9073C3814.16 19.0317 3920.59 33.2965 4001.47 58.4605C4082.82 83.773 4140.77 120.889 4177.52 176.162ZM3440.25 511.863C3455.82 481.802 3465.78 440.103 3465.78 381.766C3465.78 325.14 3455.86 284.473 3440.31 254.991C3424.96 225.903 3403.28 206.088 3376.62 192.208C3321.17 163.347 3244.84 160.079 3160.06 160.079C3109.7 160.079 3065.1 160.787 3026.08 165.337C2987.05 169.889 2955.63 178.09 2930.93 191.83C2885.07 217.35 2853.42 267.358 2853.42 381.766C2853.42 499.702 2885.26 550.11 2931.18 575.425C2955.96 589.084 2987.57 597.064 3027.05 601.392C3066.52 605.719 3111.65 606.201 3162.83 606.201C3246.54 606.201 3321.95 603.799 3376.94 575.113C3403.31 561.357 3424.9 541.488 3440.25 511.863ZM4198.16 381.766C4198.16 62.0733 3996.82 29.0964 3160.06 29.0964C2322.37 29.0964 2121.03 62.0733 2121.03 381.766C2121.03 703.29 2322.37 737.183 3160.06 737.183C3996.82 737.183 4198.16 703.29 4198.16 381.766ZM3494.4 381.766C3494.4 627.26 3327.23 634.588 3162.83 634.588C2958.72 634.588 2824.8 627.26 2824.8 381.766C2824.8 142.683 2958.72 131.691 3160.06 131.691C3327.23 131.691 3494.4 142.683 3494.4 381.766Z" fill="#393939"/>
<path fill-rule="evenodd" clip-rule="evenodd" d="M1286.3 62.9909L1036.01 394.592L784.795 62.9909H29.3071V704.208H698.902V324.974L1036.01 739.933L1372.19 324.974V704.208H2041.79V62.9909H1286.3ZM1343.57 405.622V732.595H2070.41V34.6035H1271.97L1035.97 347.279L799.09 34.6035H0.685547V732.595H727.524V405.45L1036.04 785.215L1343.57 405.622Z" fill="#393939"/>
</svg>
