<svg viewBox="0 0 1963 1963" fill="none" xmlns="http://www.w3.org/2000/svg">
<rect x="313.915" y="8.38361" width="1669.26" height="1669.26" rx="74.04" transform="rotate(10.55 313.915 8.38361)" fill="#212121" stroke="#008115" stroke-width="30"/>
<path d="M412.237 551.453L412.241 551.436L412.244 551.419C416.037 530.444 425.176 510.801 438.777 494.39C452.372 477.986 469.966 465.364 489.86 457.741C489.87 457.737 489.88 457.734 489.889 457.73L1070.86 241.681C1090.5 234.878 1111.58 233.301 1132.01 237.108C1152.45 240.914 1171.55 249.972 1187.43 263.392C1187.44 263.407 1187.46 263.423 1187.48 263.438L1651.62 674.127C1651.63 674.134 1651.64 674.141 1651.65 674.148C1667.46 688.42 1679.32 706.525 1686.1 726.716C1692.88 746.918 1694.34 768.526 1690.34 789.457L1690.34 789.473L1690.33 789.489L1573.74 1415.55L1573.73 1415.56L1573.73 1415.58C1569.91 1436.58 1560.76 1456.24 1547.16 1472.68C1533.56 1489.12 1515.96 1501.78 1496.06 1509.47C1496.05 1509.47 1496.04 1509.48 1496.03 1509.48L915.105 1725.28C896.062 1732.33 875.504 1734.25 855.486 1730.85L853.592 1730.5C833.124 1726.67 814.076 1717.37 798.471 1703.58C798.463 1703.57 798.455 1703.57 798.447 1703.56L643.931 1563.93L643.87 1563.88L643.807 1563.82C639.117 1559.79 634.704 1555.42 631.857 1550.88C629.059 1546.42 628.167 1542.46 629.221 1538.67C630.294 1534.82 632.888 1532.39 636.334 1530.69C639.929 1528.91 643.905 1528.2 646.827 1527.71C683.113 1521.66 694.276 1517.76 734.467 1503.06C734.468 1503.06 734.47 1503.06 734.472 1503.06L735.526 1502.68C738.851 1501.72 742.37 1501.64 745.736 1502.45C749.161 1503.27 752.306 1504.99 754.851 1507.43L754.956 1507.53L755.065 1507.62L871.202 1609.49L871.714 1609.94L872.306 1610.27C874.435 1611.49 876.911 1611.95 879.335 1611.58L880.014 1611.48L880.659 1611.24L1448.79 1401.64L1449.32 1401.44L1449.81 1401.16C1451.23 1400.34 1452.46 1399.21 1453.4 1397.86C1454.32 1396.53 1454.95 1395.02 1455.22 1393.43L1570.13 776.423C1570.47 774.669 1570.4 772.859 1569.9 771.142C1569.4 769.405 1568.5 767.813 1567.26 766.499L1567.07 766.301L1566.87 766.118L1114.2 358.22L1113.98 358.022L1113.74 357.843C1112.56 356.958 1111.2 356.356 1109.75 356.087C1108.3 355.817 1106.81 355.886 1105.4 356.289L1105.11 356.371L1104.83 356.477L535.973 574.123L535.86 574.166L535.749 574.214C534.094 574.916 532.631 576.005 531.483 577.39C530.336 578.774 529.537 580.414 529.154 582.171L529.132 582.271L529.114 582.372L414.167 1199.56C413.843 1201.24 413.936 1202.98 414.436 1204.61C414.941 1206.27 415.846 1207.77 417.07 1208.98L417.206 1209.12L417.349 1209.25L533.977 1312.77L534.142 1312.92L534.316 1313.05C564.443 1336.46 595.318 1346.03 620.671 1336.38L620.753 1336.35L620.834 1336.31C630.088 1332.51 638.202 1326.38 644.39 1318.52C650.555 1310.69 654.599 1301.4 656.133 1291.56L769.168 684.631L769.173 684.603L769.178 684.576C770.215 678.74 773.524 673.555 778.38 670.156C783.226 666.764 789.219 665.429 795.046 666.442L870.231 680.444C876.033 681.597 881.143 685 884.443 689.909C887.75 694.828 888.97 700.858 887.837 706.675L887.831 706.702L887.826 706.73L774.773 1313.76C764.529 1368.76 739.981 1409.57 705.514 1434.26C671.083 1458.93 625.957 1468.1 573.382 1458.3C558.07 1455.45 544.43 1452.9 526.902 1445.24C509.315 1437.56 487.552 1424.62 456.556 1400.72L456.032 1400.28L334.33 1293.01C334.32 1293 334.311 1292.99 334.301 1292.99C318.489 1278.69 306.625 1260.56 299.851 1240.35C293.073 1220.13 291.62 1198.5 295.632 1177.55L295.636 1177.53L295.639 1177.51L412.237 551.453Z" fill="#006611" stroke="#212121" stroke-width="13.46"/>
<path d="M978.806 1103.17L978.805 1103.2L978.804 1103.22C977.466 1133.1 981.947 1159.92 1004.3 1182.03C1026.2 1203.68 1064.29 1219.82 1127.31 1231.56C1190.53 1243.33 1229.56 1238.5 1253.87 1224.94C1278.62 1211.13 1286.68 1189.12 1290.06 1170.71C1290.06 1170.7 1290.06 1170.7 1290.06 1170.7L1290.13 1170.33C1291.13 1164.93 1292.44 1157.91 1290.55 1150.2C1288.55 1142.09 1283.3 1134.12 1273.06 1125.88C1252.99 1109.72 1211.75 1090.91 1129.34 1066.58C1058.88 1045.71 1002.68 1022.09 966.999 988.504C949.277 971.823 936.673 952.73 929.859 930.259C923.034 907.756 921.897 881.474 927.708 850.272C938.227 793.793 968.778 753.282 1015.22 730.137C1061.92 706.861 1125.39 700.824 1201.96 715.083C1286.55 730.838 1346.66 757.633 1383.92 794.616C1420.89 831.302 1436.03 878.68 1429.41 937.524L1429.41 937.525C1428.72 943.741 1425.59 949.431 1420.73 953.358C1418.35 955.261 1415.59 956.636 1412.64 957.391C1409.7 958.145 1406.63 958.264 1403.63 957.742L1336.9 945.313C1332.04 944.325 1327.66 941.713 1324.48 937.905C1321.29 934.085 1319.51 929.292 1319.42 924.318L1319.41 924.153L1319.4 923.988C1317.27 892.363 1304.36 870.776 1280.52 855.387C1257.33 840.42 1224.06 831.5 1181.64 823.6C1121.57 812.412 1087.7 817.259 1068.19 828.835C1048.23 840.685 1044.88 858.658 1043.13 868.098L1043.1 868.248C1043.06 868.455 1043.02 868.663 1042.98 868.872C1041.88 874.791 1040.58 881.73 1042.68 888.829C1044.95 896.476 1050.68 903.129 1060.78 909.959C1080.63 923.394 1121.21 939.992 1201.32 966.745C1280.39 993.167 1337.51 1018.46 1372.09 1052.14C1389.22 1068.82 1400.77 1087.52 1406.7 1109.5C1412.65 1131.54 1413.07 1157.27 1407.32 1188.14C1395.96 1249.14 1362.19 1295.42 1310.43 1321.94C1258.44 1348.58 1188.31 1355.15 1107.24 1340.05C976.122 1315.63 915.093 1263.36 887.488 1212.52C859.725 1161.39 864.904 1110.15 869.35 1086.27L869.361 1086.22L869.37 1086.16C870.345 1080.39 873.568 1075.24 878.332 1071.83C883.078 1068.44 888.97 1067.06 894.727 1067.99L961.179 1080.37C966.351 1081.43 970.972 1084.31 974.206 1088.48C977.45 1092.67 979.083 1097.88 978.806 1103.17Z" fill="#006611" stroke="#212121" stroke-width="13.46"/>
</svg>
