<svg width="2812" height="420" viewBox="0 0 2812 420" fill="none" xmlns="http://www.w3.org/2000/svg">
<path d="M142.479 195.594V127.554L315.377 127.554C323.753 127.554 331.044 130.822 336.987 137.655C343.201 144.195 346.173 152.214 346.173 161.721C346.173 170.935 343.201 178.954 336.987 185.791C331.044 192.326 323.753 195.594 315.377 195.594H142.479ZM0.921875 10.7898L0.921875 410.11H142.479V312.655H350.768C425.6 313.846 489.086 244.022 488.005 161.721C489.086 79.1261 425.6 9.89551 350.768 10.7898L0.921875 10.7898Z" fill="#394149"/>
<path d="M769.778 0.382812C633.083 0.679503 521.241 44.0599 521.779 195.292V224.41C521.241 375.345 633.083 419.017 769.778 419.314C906.194 419.017 1018.06 375.345 1017.51 224.41V195.292C1017.51 44.3566 906.469 0.382812 769.778 0.382812ZM875.929 214.602C876.754 279.967 827.584 291.852 769.778 292.746C711.697 291.852 662.53 279.967 663.34 214.602V204.798C662.53 139.73 711.697 127.845 769.778 126.955C827.584 127.845 876.754 139.73 875.929 204.798V214.602Z" fill="#394149"/>
<path d="M1569.42 263.635L1485.38 10.791L1326 10.791L1241.73 263.635L1157.7 10.791L998.316 10.791L1157.7 410.111H1326L1405.71 210.451L1485.38 410.111H1653.69L1813.11 10.791L1653.69 10.791L1569.42 263.635Z" fill="#394149"/>
<path d="M1823.94 410.111H2248.86V307.609H1965.47V256.502H2248.86V164.099H1965.47V112.997L2248.86 112.997V10.791L1823.94 10.791V410.111Z" fill="#394149"/>
<path d="M2324.25 10.489V409.813H2465.78V312.359H2592.23L2660.58 409.813H2811.31L2732.15 297.8C2755.93 285.619 2775.11 267.198 2789.42 243.132C2804.04 218.77 2811.31 191.436 2811.31 161.424C2812.41 78.8253 2748.9 9.59889 2674.1 10.489L2324.25 10.489ZM2638.41 127.258C2655.7 127.258 2669.5 142.41 2669.5 161.424C2669.5 170.634 2666.51 178.657 2660.3 185.49C2654.37 192.03 2647.06 195.297 2638.41 195.297H2465.78V127.258L2638.41 127.258Z" fill="#394149"/>
</svg>
