<svg viewBox="0 0 1561 1735" fill="none" xmlns="http://www.w3.org/2000/svg">
<path d="M423.83 730.901C422.395 767.216 421.68 813.195 421.68 868.828C421.68 924.462 422.395 970.822 423.83 1007.91C425.26 1044.23 428.126 1073.21 432.426 1094.84C437.441 1116.48 444.249 1131.54 452.849 1140.05C462.164 1148.54 474.344 1152.8 489.394 1152.8C504.44 1152.8 516.263 1148.54 524.863 1140.05C534.178 1131.54 540.986 1116.48 545.286 1094.84C550.301 1073.21 553.524 1044.23 554.959 1007.91C556.394 970.822 557.109 924.462 557.109 868.828C557.109 813.195 556.394 767.216 554.959 730.901C553.524 693.811 550.301 664.447 545.286 642.814C540.986 621.177 534.178 606.109 524.863 597.611C516.263 589.109 504.44 584.857 489.394 584.857C474.344 584.857 462.164 589.109 452.849 597.611C444.249 606.109 437.441 621.177 432.426 642.814C428.126 664.447 425.26 693.811 423.83 730.901Z" fill="#394149"/>
<path fill-rule="evenodd" clip-rule="evenodd" d="M461.914 7.81005C202.745 13.7905 -3.26066 244.412 0.897802 523.912L6.00745 867.327L0.897802 1210.74C-3.26066 1490.25 202.745 1720.87 461.914 1726.84L780.425 1734.19L1098.94 1726.84C1358.11 1720.87 1564.12 1490.25 1559.96 1210.74L1554.85 867.327L1559.96 523.912C1564.12 244.412 1358.11 13.7905 1098.94 7.81005L780.425 0.464844L461.914 7.81005ZM791.431 1304.62L671.048 1417.05L561.414 1289.56C552.814 1291.1 544.214 1292.26 535.618 1293.04C527.734 1294.58 518.776 1295.35 508.746 1295.35H489.4C438.523 1295.35 395.528 1288.01 360.416 1273.33C325.305 1258.65 297.002 1234.31 275.506 1200.31C254.01 1165.54 238.602 1121.11 229.287 1067.02C219.972 1012.16 215.314 946.09 215.314 868.823C215.314 791.552 219.972 725.873 229.287 671.782C238.602 616.92 254.01 572.493 275.506 538.492C297.002 503.72 325.305 478.607 360.416 463.154C395.528 446.925 438.523 438.812 489.4 438.812C540.276 438.812 583.268 446.925 618.379 463.154C653.49 478.607 681.797 503.72 703.293 538.492C724.789 572.493 740.197 616.92 749.512 671.782C758.827 725.873 763.485 791.552 763.485 868.823C763.485 948.408 758.47 1015.63 748.435 1070.5C738.404 1125.36 721.924 1170.18 698.993 1204.95L791.431 1304.62ZM1130.72 752.914V706.554C1130.72 659.419 1126.42 627.351 1117.82 610.355C1109.22 593.354 1095.25 584.852 1075.9 584.852C1060.85 584.852 1048.67 589.103 1039.36 597.605C1030.76 606.103 1023.95 621.171 1018.94 642.808C1014.64 664.441 1011.77 693.805 1010.34 730.896C1008.9 767.211 1008.19 813.189 1008.19 868.823C1008.19 924.457 1008.9 970.817 1010.34 1007.91C1011.77 1044.23 1014.64 1073.2 1018.94 1094.84C1023.95 1116.47 1030.76 1131.54 1039.36 1140.04C1048.67 1148.54 1060.85 1152.79 1075.9 1152.79C1088.08 1152.79 1098.12 1149.7 1106 1143.52C1113.88 1136.56 1119.97 1125.36 1124.27 1109.91C1128.57 1094.45 1131.43 1073.97 1132.87 1048.47C1135.02 1022.2 1136.09 989.364 1136.09 949.955H1329.56V1011.39C1329.56 1069.34 1322.4 1116.86 1308.07 1153.95C1293.74 1191.04 1274.75 1220.4 1251.1 1242.03C1227.45 1262.9 1200.23 1276.81 1169.41 1283.76C1139.32 1291.49 1108.15 1295.35 1075.9 1295.35C1020.01 1295.35 974.152 1288.01 938.321 1273.33C902.495 1258.65 874.549 1234.31 854.484 1200.31C834.419 1165.54 820.446 1121.11 812.565 1067.02C805.4 1012.16 801.815 946.09 801.815 868.823C801.815 790.005 806.115 723.169 814.715 668.307C824.03 613.444 839.438 569.013 860.934 535.016C882.43 501.016 910.733 476.674 945.844 461.992C980.955 446.539 1024.31 438.812 1075.9 438.812C1121.05 438.812 1159.38 444.996 1190.91 457.36C1222.44 469.723 1247.88 487.495 1267.23 510.675C1287.29 533.084 1301.62 560.515 1310.22 592.968C1319.53 624.647 1324.19 660.58 1324.19 700.76V752.914H1130.72Z" fill="#394149"/>
</svg>
