<svg viewBox="0 0 1596 1596" fill="none" xmlns="http://www.w3.org/2000/svg">
<rect x="22.5066" y="6.7446" width="1567.06" height="1567.06" rx="69.5066" transform="rotate(0.560989 22.5066 6.7446)" fill="#151515" stroke="transparent" stroke-width="12.6376"/>
<path d="M134.872 746.43L1461.88 742.831L1463.15 1211.74C1463.45 1321.93 1379.28 1406.56 1269.08 1406.86L331.268 1409.41C221.074 1409.71 136.442 1325.53 136.143 1215.34L134.872 746.43Z" fill="black"/>
<path d="M403.593 671.372C388.853 656.711 370.096 646.751 349.694 642.75C329.293 638.75 308.163 640.889 288.978 648.897C269.792 656.905 253.412 670.422 241.908 687.74C230.405 705.057 224.295 725.397 224.351 746.187C224.408 766.977 230.628 787.283 242.225 804.538C253.822 821.793 270.275 835.221 289.504 843.125C308.733 851.029 329.874 853.053 350.253 848.942C370.633 844.831 389.336 834.769 403.996 820.028L1193.16 817.888C1207.9 832.549 1226.65 842.509 1247.05 846.51C1267.46 850.511 1288.59 848.372 1307.77 840.364C1326.96 832.356 1343.34 818.838 1354.84 801.521C1366.34 784.203 1372.45 763.864 1372.4 743.074C1372.34 722.284 1366.12 701.977 1354.52 684.723C1342.93 667.468 1326.47 654.039 1307.24 646.136C1288.02 638.232 1266.87 636.207 1246.5 640.319C1226.12 644.43 1207.41 654.492 1192.75 669.232L403.593 671.372Z" fill="#FFB13B" stroke="black" stroke-width="178.226"/>
<path d="M571.024 413.676C570.968 392.886 564.748 372.58 553.15 355.325C541.553 338.071 525.1 324.642 505.871 316.738C486.642 308.834 465.501 306.81 445.122 310.921C424.742 315.033 406.04 325.095 391.379 339.835C376.718 354.576 366.758 373.333 362.757 393.734C358.756 414.135 360.895 435.265 368.903 454.451C376.911 473.637 390.429 490.017 407.746 501.52C425.064 513.024 445.404 519.133 466.193 519.077L1025.73 1075.58C1025.78 1096.37 1032 1116.68 1043.6 1133.93C1055.2 1151.19 1071.65 1164.62 1090.88 1172.52C1110.11 1180.43 1131.25 1182.45 1151.63 1178.34C1172.01 1174.23 1190.71 1164.17 1205.37 1149.42C1220.03 1134.68 1229.99 1115.93 1233.99 1095.53C1237.99 1075.12 1235.86 1054 1227.85 1034.81C1219.84 1015.62 1206.32 999.243 1189 987.74C1171.69 976.237 1151.35 970.127 1130.56 970.183L571.024 413.676Z" fill="#FFB13B" stroke="black" stroke-width="178.226"/>
<path d="M871.632 349.848C886.293 335.108 896.253 316.351 900.254 295.949C904.254 275.548 902.115 254.418 894.107 235.232C886.099 216.047 872.582 199.666 855.264 188.163C837.947 176.66 817.607 170.55 796.817 170.606C776.027 170.663 755.721 176.883 738.466 188.48C721.211 200.077 707.783 216.53 699.879 235.759C691.975 254.988 689.951 276.129 694.062 296.508C698.173 316.888 708.235 335.59 722.976 350.251L725.116 1139.41C710.455 1154.15 700.495 1172.91 696.494 1193.31C692.494 1213.71 694.632 1234.84 702.641 1254.03C710.649 1273.21 724.166 1289.59 741.483 1301.1C758.801 1312.6 779.141 1318.71 799.931 1318.65C820.72 1318.6 841.027 1312.38 858.281 1300.78C875.536 1289.18 888.965 1272.73 896.869 1253.5C904.772 1234.27 906.797 1213.13 902.686 1192.75C898.574 1172.37 888.512 1153.67 873.772 1139.01L871.632 349.848Z" fill="#FFB13B" stroke="black" stroke-width="178.226"/>
<path d="M1129.33 517.276C1150.12 517.22 1170.42 511 1187.68 499.403C1204.93 487.806 1218.36 471.352 1226.27 452.123C1234.17 432.895 1236.19 411.754 1232.08 391.374C1227.97 370.995 1217.91 352.292 1203.17 337.631C1188.43 322.971 1169.67 313.01 1149.27 309.01C1128.87 305.009 1107.74 307.148 1088.55 315.156C1069.37 323.164 1052.99 336.681 1041.48 353.999C1029.98 371.316 1023.87 391.656 1023.93 412.446L467.42 971.979C446.63 972.035 426.324 978.256 409.069 989.853C391.814 1001.45 378.386 1017.9 370.482 1037.13C362.578 1056.36 360.554 1077.5 364.665 1097.88C368.776 1118.26 378.838 1136.96 393.579 1151.62C408.319 1166.28 427.076 1176.25 447.478 1180.25C467.879 1184.25 489.009 1182.11 508.194 1174.1C527.38 1166.09 543.76 1152.57 555.264 1135.26C566.767 1117.94 572.877 1097.6 572.821 1076.81L1129.33 517.276Z" fill="#FFB13B" stroke="black" stroke-width="178.226"/>
<path d="M403.593 671.372C388.853 656.711 370.096 646.751 349.694 642.75C329.293 638.75 308.163 640.889 288.978 648.897C269.792 656.905 253.412 670.422 241.908 687.74C230.405 705.057 224.295 725.397 224.351 746.187C224.408 766.977 230.628 787.283 242.225 804.538C253.822 821.793 270.275 835.221 289.504 843.125C308.733 851.029 329.874 853.053 350.253 848.942C370.633 844.831 389.336 834.769 403.996 820.028L1193.16 817.888C1207.9 832.549 1226.65 842.509 1247.05 846.51C1267.46 850.511 1288.59 848.372 1307.77 840.364C1326.96 832.356 1343.34 818.838 1354.84 801.521C1366.34 784.203 1372.45 763.864 1372.4 743.074C1372.34 722.284 1366.12 701.977 1354.52 684.723C1342.93 667.468 1326.47 654.039 1307.24 646.136C1288.02 638.232 1266.87 636.207 1246.5 640.319C1226.12 644.43 1207.41 654.492 1192.75 669.232L403.593 671.372Z" fill="#C4862A"/>
<path d="M571.024 413.676C570.968 392.886 564.748 372.58 553.15 355.325C541.553 338.071 525.1 324.642 505.871 316.738C486.642 308.834 465.501 306.81 445.122 310.921C424.742 315.033 406.04 325.095 391.379 339.835C376.718 354.576 366.758 373.333 362.757 393.734C358.756 414.135 360.895 435.265 368.903 454.451C376.911 473.637 390.429 490.017 407.746 501.52C425.064 513.024 445.404 519.133 466.193 519.077L1025.73 1075.58C1025.78 1096.37 1032 1116.68 1043.6 1133.93C1055.2 1151.19 1071.65 1164.62 1090.88 1172.52C1110.11 1180.43 1131.25 1182.45 1151.63 1178.34C1172.01 1174.23 1190.71 1164.17 1205.37 1149.42C1220.03 1134.68 1229.99 1115.93 1233.99 1095.53C1237.99 1075.12 1235.86 1054 1227.85 1034.81C1219.84 1015.62 1206.32 999.243 1189 987.74C1171.69 976.237 1151.35 970.127 1130.56 970.183L571.024 413.676Z" fill="#C4862A"/>
<path d="M871.632 349.848C886.293 335.108 896.253 316.351 900.254 295.949C904.254 275.548 902.115 254.418 894.107 235.232C886.099 216.047 872.582 199.666 855.264 188.163C837.947 176.66 817.607 170.55 796.817 170.606C776.027 170.663 755.721 176.883 738.466 188.48C721.211 200.077 707.783 216.53 699.879 235.759C691.975 254.988 689.951 276.129 694.062 296.508C698.173 316.888 708.235 335.59 722.976 350.251L725.116 1139.41C710.455 1154.15 700.495 1172.91 696.494 1193.31C692.494 1213.71 694.632 1234.84 702.641 1254.03C710.649 1273.21 724.166 1289.59 741.483 1301.1C758.801 1312.6 779.141 1318.71 799.931 1318.65C820.72 1318.6 841.027 1312.38 858.281 1300.78C875.536 1289.18 888.965 1272.73 896.869 1253.5C904.772 1234.27 906.797 1213.13 902.686 1192.75C898.574 1172.37 888.512 1153.67 873.772 1139.01L871.632 349.848Z" fill="#C4862A"/>
<path d="M1129.33 517.276C1150.12 517.22 1170.42 511 1187.68 499.403C1204.93 487.806 1218.36 471.352 1226.27 452.123C1234.17 432.895 1236.19 411.754 1232.08 391.374C1227.97 370.995 1217.91 352.292 1203.17 337.631C1188.43 322.971 1169.67 313.01 1149.27 309.01C1128.87 305.009 1107.74 307.148 1088.55 315.156C1069.37 323.164 1052.99 336.681 1041.48 353.999C1029.98 371.316 1023.87 391.656 1023.93 412.446L467.42 971.979C446.63 972.035 426.324 978.256 409.069 989.853C391.814 1001.45 378.386 1017.9 370.482 1037.13C362.578 1056.36 360.554 1077.5 364.665 1097.88C368.776 1118.26 378.838 1136.96 393.579 1151.62C408.319 1166.28 427.076 1176.25 447.478 1180.25C467.879 1184.25 489.009 1182.11 508.194 1174.1C527.38 1166.09 543.76 1152.57 555.264 1135.26C566.767 1117.94 572.877 1097.6 572.821 1076.81L1129.33 517.276Z" fill="#C4862A"/>
<path d="M134.872 746.43L1461.88 742.831L1463.15 1211.74C1463.45 1321.93 1379.28 1406.56 1269.08 1406.86L331.268 1409.41C221.074 1409.71 136.442 1325.53 136.143 1215.34L134.872 746.43Z" fill="black"/>
<path d="M334.885 1077.12C303.674 1046.08 284.295 1003.17 284.166 955.703C283.909 860.74 360.723 783.555 455.639 783.297C550.602 783.04 627.834 859.807 628.091 954.77L527.37 955.043C527.263 915.711 495.254 883.921 455.912 884.028C416.58 884.135 384.791 916.098 384.897 955.43C384.95 975.077 392.98 992.855 405.853 1005.67L405.9 1005.67C418.83 1018.57 429.578 1022.29 456.299 1026.45C503.822 1031.27 546.831 1045.47 578.032 1076.5C609.243 1107.55 628.622 1150.46 628.751 1197.93C629.008 1292.89 552.194 1370.12 457.231 1370.38C362.315 1370.64 285.083 1293.82 284.826 1198.86L385.557 1198.59C385.663 1237.92 417.626 1269.76 456.958 1269.65C496.3 1269.54 528.136 1237.53 528.03 1198.2C527.976 1178.55 519.947 1160.82 507.064 1147.96L507.017 1147.96C494.087 1135.1 475.572 1130.71 456.572 1127.22L456.572 1127.18C410.506 1120.24 366.086 1108.16 334.885 1077.12Z" fill="#B0B0B0"/>
<path d="M971.523 781.898L851.481 1369.31L750.759 1369.58L627.626 782.831L728.348 782.558L800.554 1126.2L870.802 782.172L971.523 781.898Z" fill="#B0B0B0"/>
<path d="M1144.18 1024.59L1316.12 1024.12L1316.58 1196.06L1316.63 1196.06C1316.89 1291.03 1240.07 1368.27 1145.11 1368.52C1050.14 1368.78 972.962 1291.97 972.704 1196.99L972.045 953.847L971.998 953.847C971.74 858.884 1048.54 781.699 1143.52 781.442C1238.43 781.184 1315.67 857.951 1315.92 952.915L1215.19 953.188C1215.09 913.893 1183.08 882.057 1143.79 882.163C1104.45 882.27 1072.66 914.28 1072.77 953.574L1073.43 1196.72C1073.53 1236.06 1105.49 1267.85 1144.84 1267.75C1184.12 1267.64 1215.91 1235.68 1215.85 1196.38L1215.85 1196.34L1215.66 1125.17L1144.45 1125.37L1144.18 1024.59Z" fill="#B0B0B0"/>
</svg>
