<svg viewBox="0 0 557 557" fill="none" xmlns="http://www.w3.org/2000/svg">
<path d="M50.8927 0.617101C23.2933 0.65164 0.422212 23.5801 0.456751 51.1794L0.519948 101.679C0.554487 129.278 23.4829 152.149 51.0822 152.114L505.574 151.546C533.173 151.511 556.045 128.583 556.01 100.983L555.947 50.4842C555.912 22.8849 532.984 0.0137923 505.385 0.0483312L50.8927 0.617101ZM126.705 51.0214L505.448 50.5474L505.511 101.047L126.768 101.521L126.705 51.0214ZM51.1454 202.614C23.5461 202.648 0.674999 225.576 0.709538 253.176L0.772735 303.675C0.807274 331.274 23.7357 354.145 51.335 354.111L505.827 353.542C533.426 353.508 556.297 330.579 556.263 302.98L556.2 252.481C556.165 224.881 533.237 202.01 505.637 202.045L51.1454 202.614ZM404.702 252.67L505.701 252.544L505.764 303.043L404.766 303.169L404.702 252.67ZM51.3982 404.61C23.7989 404.644 0.927786 427.573 0.962325 455.172L1.02552 505.671C1.06006 533.271 23.9885 556.142 51.5878 556.107L506.08 555.538C533.679 555.504 556.55 532.575 556.516 504.976L556.452 454.477C556.418 426.878 533.489 404.007 505.89 404.041L51.3982 404.61ZM278.707 454.825L505.953 454.54L506.017 505.039L278.771 505.324L278.707 454.825Z" fill="#575757"/>
</svg>
