<svg viewBox="0 0 1807 1808" fill="none" xmlns="http://www.w3.org/2000/svg">
<rect x="7.33615" y="9.0654" width="1791.15" height="1791.15" rx="79.4462" transform="rotate(-0.0348389 7.33615 9.0654)" fill="#212121" stroke="#0C874599" stroke-width="30"/>
<path d="M1235.78 624.834L1230.72 629.824C1195.14 593.746 1157.47 555.586 1106.55 526.307C1055.8 497.124 991.603 476.617 903.027 476.671C807.66 476.729 730.913 500.598 672.147 547.67C620.421 589.102 582.047 648.974 557.35 727.821C587.915 693.188 620.709 668.183 655.799 653.118C699.618 634.307 746.518 631.217 796.216 643.609L1235.78 624.834ZM1235.78 624.834L1230.72 629.825M1235.78 624.834L1230.72 629.825M1611.16 645.503C1580.6 680.136 1547.81 705.141 1512.72 720.205C1468.9 739.016 1422 742.107 1372.3 729.715L1611.16 645.503ZM1611.16 645.503C1586.47 724.35 1548.09 784.222 1496.37 825.654C1437.6 872.726 1360.86 896.595 1265.49 896.653C1176.94 896.707 1112.76 876.2 1062.01 847.017C1011.09 817.738 973.402 779.578 937.794 743.499C937.793 743.499 937.792 743.498 937.792 743.497L937.008 742.703C893.942 699.033 853.309 657.831 796.218 643.61L1611.16 645.503ZM1230.72 629.825L1231.51 630.621M1230.72 629.825L1231.51 630.621M1231.51 630.621C1274.57 674.291 1315.21 715.493 1372.3 729.714L1231.51 630.621ZM1249.22 1080.37C1224.53 1159.22 1186.15 1219.09 1134.43 1260.52C1075.66 1307.59 998.913 1331.46 903.546 1331.52C815.001 1331.57 750.814 1311.07 700.067 1281.88C649.152 1252.6 611.459 1214.44 575.85 1178.37L575.066 1177.57C531.999 1133.9 491.366 1092.7 434.274 1078.48C384.576 1066.09 337.676 1069.18 293.857 1087.99C258.766 1103.05 225.973 1128.06 195.408 1162.69C220.105 1083.84 258.479 1023.97 310.205 982.537C368.971 935.466 445.717 911.596 541.084 911.538C629.661 911.485 693.862 931.992 744.609 961.175C795.523 990.454 833.201 1028.61 868.779 1064.69L873.921 1059.62L868.779 1064.69L869.565 1065.49C912.632 1109.16 953.264 1150.36 1010.36 1164.58C1060.05 1176.97 1106.95 1173.88 1150.77 1155.07C1185.86 1140.01 1218.66 1115 1249.22 1080.37Z" fill="#0C8745" stroke="#0C8745" stroke-width="14.4448"/>
</svg>
