<svg viewBox="0 0 114 114" fill="none" xmlns="http://www.w3.org/2000/svg">
<path d="M96.3483 51.8101L98.6185 51.6006V49.3207V35.6477V33.3204L96.2971 33.1541C86.9028 32.4811 79.377 25.1298 78.3984 15.8119L78.1632 13.573H75.912H64.1549H61.6603L61.6549 16.0676L64.1549 16.073C61.6549 16.0676 61.6549 16.0679 61.6549 16.0683L61.6549 16.0702L61.6549 16.078L61.6548 16.109L61.6546 16.2314L61.6535 16.7089L61.6496 18.5213L61.6357 24.9925L61.5933 44.6483C61.5625 58.9528 61.5316 73.3014 61.5316 73.4462C61.5316 78.9374 56.6069 83.5303 50.7747 83.5303C45.1141 83.5303 40.5314 78.9438 40.5314 73.287C40.5314 67.6309 45.1186 63.0437 50.7747 63.0437C50.9919 63.0437 51.151 63.0655 51.4394 63.1049C51.5888 63.1254 51.7729 63.1506 52.0177 63.18L54.8156 63.5157V60.6978V48.391V46.038L52.4668 45.8956C52.3782 45.8902 52.2782 45.8834 52.1695 45.876C51.7743 45.8489 51.2647 45.814 50.7747 45.814C35.6083 45.814 23.3068 58.1097 23.3068 73.2819C23.3068 88.4487 35.6079 100.749 50.7738 100.755H50.7747C65.9411 100.755 78.2425 88.4592 78.2425 73.287V73.285V73.2827V73.28V73.2768V73.2733V73.2693V73.265V73.2603V73.2551V73.2496V73.2437V73.2374V73.2307V73.2236V73.2162V73.2083V73.2001V73.1914V73.1824V73.173V73.1632V73.1531V73.1425V73.1316V73.1203V73.1086V73.0965V73.0841V73.0713V73.0581V73.0445V73.0306V73.0162V73.0016V72.9865V72.9711V72.9553V72.9391V72.9226V72.9057V72.8884V72.8708V72.8528V72.8344V72.8157V72.7966V72.7771V72.7573V72.7372V72.7166V72.6958V72.6745V72.6529V72.631V72.6087V72.586V72.563V72.5397V72.516V72.4919V72.4675V72.4428V72.4177V72.3922V72.3664V72.3403V72.3138V72.287V72.2599V72.2324V72.2045V72.1764V72.1478V72.119V72.0898V72.0603V72.0304V72.0002V71.9697V71.9389V71.9077V71.8762V71.8443V71.8121V71.7796V71.7468V71.7137V71.6802V71.6464V71.6123V71.5778V71.5431V71.508V71.4726V71.4369V71.4008V71.3645V71.3278V71.2908V71.2535V71.2159V71.178V71.1397V71.1012V71.0623V71.0232V70.9837V70.9439V70.9038V70.8634V70.8227V70.7817V70.7404V70.6988V70.6569V70.6147V70.5722V70.5294V70.4863V70.4429V70.3992V70.3552V70.311V70.2664V70.2215V70.1764V70.1309V70.0852V70.0392V69.9929V69.9463V69.8994V69.8522V69.8048V69.757V69.709V69.6607V69.6121V69.5633V69.5141V69.4647V69.415V69.365V69.3148V69.2643V69.2135V69.1624V69.1111V69.0595V69.0076V68.9555V68.903V68.8504V68.7974V68.7442V68.6907V68.637V68.583V68.5287V68.4742V68.4194V68.3643V68.309V68.2534V68.1976V68.1416V68.0852V68.0286V67.9718V67.9147V67.8574V67.7998V67.7419V67.6838V67.6255V67.5669V67.5081V67.449V67.3896V67.3301V67.2703V67.2102V67.1499V67.0894V67.0286V66.9676V66.9064V66.8449V66.7832V66.7212V66.659V66.5966V66.5339V66.471V66.4079V66.3446V66.281V66.2172V66.1532V66.0889V66.0244V65.9597V65.8948V65.8297V65.7643V65.6987V65.6329V65.5669V65.5006V65.4341V65.3675V65.3006V65.2334V65.1661V65.0986V65.0308V64.9629V64.8947V64.8263V64.7577V64.6889V64.6199V64.5507V64.4813V64.4117V64.3419V64.2718V64.2016V64.1312V64.0606V63.9897V63.9187V63.8475V63.7761V63.7045V63.6327V63.5607V63.4885V63.4161V63.3435V63.2708V63.1978V63.1247V63.0513V62.9778V62.9041V62.8302V62.7562V62.6819V62.6075V62.5329V62.4581V62.3831V62.308V62.2326V62.1571V62.0815V62.0056V61.9296V61.8534V61.777V61.7004V61.6237V61.5468V61.4698V61.3926V61.3152V61.2376V61.1599V61.082V61.0039V60.9257V60.8474V60.7688V60.6901V60.6113V60.5323V60.4531V60.3738V60.2943V60.2146V60.1349V60.0549V59.9748V59.8946V59.8142V59.7336V59.6529V59.5721V59.4911V59.41V59.3287V59.2473V59.1657V59.084V59.0021V58.9201V58.838V58.7557V58.6733V58.5908V58.5081V58.4253V58.3423V58.2593V58.176V58.0927V58.0092V57.9256V57.8419V57.758V57.674V57.5899V57.5056V57.4212V57.3368V57.2521V57.1674V57.0825V56.9975V56.9124V56.8272V56.7419V56.6564V56.5709V56.4852V56.3994V56.3135V56.2274V56.1413V56.055V55.9687V55.8822V55.7956V55.709V55.6222V55.5353V55.4483V55.3612V55.274V55.1867V55.0992V55.0117V54.9241V54.8364V54.7486V54.6607V54.5727V54.4846V54.3965V54.3082V54.2198V54.1313V54.0428V53.9541V53.8654V53.7766V53.6877V53.5987V53.5096V53.4205V53.3312V53.2419V53.1525V53.063V52.9734V52.8838V52.7941V52.7043V52.6144V52.5244V52.4344V52.3443V52.2541V52.1639V52.0735V51.9832V51.8927V51.8022V51.7116V51.6209V51.5302V51.4394V51.3485V51.2576V51.1666V51.0756V50.9845V50.8933V50.8021V50.7108V50.6195V50.5281V50.4367V50.3451V50.2536V50.162V50.0703V49.9786V49.8869V49.795V49.7032V49.6113V49.5193V49.4273V49.3353V49.2432V49.1511V49.0589V48.9667V48.8744V48.7821V48.6898V48.5975V48.505V48.4126V48.3201V48.2276V48.1351V48.0425V47.9499V47.8573V47.7646V47.6719V47.5792V47.4864V47.3936V47.3008V47.208V47.1152V47.0223V46.9294V46.8365V46.7435V46.6506V46.5576V46.4646V46.3716V46.2786V46.1856V46.0925V46.0782C82.5099 49.7205 88.0445 51.9235 94.0999 51.9235C94.8772 51.9235 95.6306 51.8764 96.3483 51.8101ZM10.3977 3.15881H102.852C107.143 3.15881 110.625 6.63739 110.625 10.9315V103.386C110.625 107.681 107.147 111.159 102.852 111.159H10.3977C6.10276 111.159 2.625 107.681 2.625 103.386V10.9315C2.625 6.63657 6.10276 3.15881 10.3977 3.15881Z" stroke="#1f3c40" stroke-width="4"/>
</svg>
