<svg viewBox="0 0 635 114" fill="none" xmlns="http://www.w3.org/2000/svg">
<path d="M634.618 34.5408H533.253V47.1361H607.723V65.2218H533.253V79.5934H634.618V113.665H482.535V0.46875L634.618 0.46875V34.5408Z" fill="#862222"/>
<path d="M414.646 0.46875C470.463 0.46875 475.213 9.02713 475.213 44.391C475.213 77.0097 465.224 85.891 414.646 85.891C404.865 85.891 371.333 86.0525 371.333 86.0525V113.665H320.615V0.46875L414.646 0.46875ZM404.935 67.9669C419.117 67.9669 421.981 65.5447 421.981 42.7762C421.981 21.6225 418.837 18.7159 404.935 18.7159L371.333 18.7159V67.9669H404.935Z" fill="#862222"/>
<path d="M259.923 0.632813L318.465 0.632813L262.578 74.7516V113.507H211.93V74.7516L156.043 0.632812L214.585 0.632813L237.219 31.4753L259.923 0.632813Z" fill="#862222"/>
<path d="M0.550781 0.46875L152.634 0.46875V34.5408H101.916V113.665H51.2685V34.5408H0.550781L0.550781 0.46875Z" fill="#862222"/>
</svg>
