<svg viewBox="0 0 114 114" fill="none" xmlns="http://www.w3.org/2000/svg">
<path d="M24.296 24.0156H20.4568L22.657 27.1618L46.1717 60.7859L24.0479 86.3429L21.1834 89.6519H25.56H33.1341H34.0495L34.6478 88.9592L51.9084 68.9741L65.7745 88.7982L66.3716 89.6519H67.4134H91.0988H94.9391L92.7375 86.5053L67.6873 50.7028L87.8774 27.3227L90.7334 24.0156H86.3637H78.91H77.9959L77.3977 24.7067L61.973 42.5288L49.6203 24.8692L49.0232 24.0156H47.9814H24.296ZM2.41992 10.6065C2.41992 6.03536 6.12154 2.33374 10.6926 2.33374H103.147C107.718 2.33374 111.42 6.03536 111.42 10.6065V103.061C111.42 107.632 107.718 111.334 103.147 111.334H10.6926C6.12154 111.334 2.41992 107.632 2.41992 103.061V10.6065ZM71.483 79.5425L39.5987 34.0949H43.8919L75.7854 79.5425H71.483Z" stroke="#213757" stroke-width="4"/>
</svg>
