<svg width="2836" height="749" viewBox="0 0 2836 749" fill="none" xmlns="http://www.w3.org/2000/svg">
<path fill-rule="evenodd" clip-rule="evenodd" d="M373.697 47.0693L548.927 243.161L724.156 47.0693L1028.6 47.0693L700.919 383.228L1028.6 719.383H724.156L548.927 522.791L373.697 719.383H68.789L396.474 383.228L68.789 47.0693L373.697 47.0693ZM356.804 383.228L0.40625 17.6165L385.347 17.6165L548.927 200.67L712.506 17.6165L1083.71 17.6165V17.1163L1712.82 17.1163C1856.68 15.5311 1978.44 145.253 1976.48 300.901C1976.44 356.886 1962.41 408.493 1934.31 454.425C1913.16 489.193 1886.35 517.798 1854.24 539.55L1988.39 725.283V604.831C1988.39 510.458 2053.79 450.293 2129.02 410.392C2205 370.11 2300.86 344.942 2380.69 324.581L2380.81 324.551L2381.71 324.305C2430.92 311.255 2472.82 300.146 2502.65 288.164C2517.75 282.091 2527.65 276.593 2533.31 271.923C2534.02 271.329 2534.61 270.804 2535.12 270.35C2533.39 268.638 2529.85 266.082 2522.9 263.136C2506.66 256.283 2478.95 251.12 2436.98 251.108C2392.13 251.608 2354 255.541 2327.98 265.383C2315.17 270.236 2307.43 275.763 2303.06 280.95C2299.37 285.405 2297.17 290.69 2297.37 298.981L2298.03 329.141H1998.14V299.689C1998.14 239.223 2009.14 188.667 2031.15 147.245C2053.28 105.636 2085.51 75.2549 2124.82 53.4651C2201.93 10.712 2308.17 0.107422 2426.64 0.107422C2547.93 0.107422 2648.63 15.2005 2719.93 54.0585C2756.01 73.7502 2785.34 99.9565 2805.5 134.038C2825.7 168.208 2835.61 208.431 2835.61 254.168C2835.61 338.805 2788.24 392.714 2730.19 427.85C2673.83 461.966 2602.88 481.339 2543.96 496.839H2825.39V747.84L2004.66 747.84L2005.01 748.34H1676.27L1558.67 584.261H1381.99V748.34H1096.48L1096.99 748.84H712.486L548.927 565.341L385.367 748.84H0.40625L356.804 383.228ZM1083.71 735.201V31.2515L740.586 383.228L1083.71 735.201ZM1572.15 554.808L1689.75 718.883H1949.08L1812.89 530.293C1821.42 526.034 1829.56 521.321 1837.38 516.167C1867.17 496.492 1891.93 470.353 1911.43 438.251C1936.55 397.232 1949.08 351.211 1949.08 300.689C1950.97 161.622 1841.74 45.0688 1712.98 46.5692L1111.06 46.5692V718.883H1354.6V554.808H1572.15ZM2400.62 526.292C2409.15 515.048 2424.6 505.486 2445.11 496.839C2469.29 486.633 2500.41 477.699 2535.4 468.768C2655.32 437.251 2808.25 394.231 2808.25 254.168C2808.25 90.0894 2666.95 29.5603 2426.64 29.5603C2200.67 29.5603 2040.43 69.2575 2026.51 270.231C2025.85 279.692 2025.49 289.504 2025.49 299.689H2270.01C2269.97 298.578 2269.97 297.485 2270.01 296.408C2271.35 236.65 2347.83 222.634 2436.86 221.651C2523.76 221.651 2563.73 242.66 2563.73 271.177C2563.73 306.373 2486.62 326.832 2389.77 352.512L2387.14 353.212C2226.3 394.231 2015.74 451.259 2015.74 604.831V718.382L2797.99 718.382V526.292H2400.62ZM2536.65 272.609C2536.65 272.609 2536.5 272.423 2536.42 271.99C2536.65 272.38 2536.65 272.609 2536.65 272.609ZM1677.72 300.689C1677.72 284.943 1666.25 272.618 1651.62 272.618H1381.99V328.26H1651.62C1659.48 328.26 1664.99 325.687 1669.9 320.381C1675.52 314.337 1677.72 308.293 1677.72 300.689ZM1705.08 300.689C1705.08 268.672 1681.38 243.161 1651.62 243.161L1354.6 243.161V357.713H1651.62C1666.48 357.713 1679.06 352.211 1689.28 341.208C1699.97 329.701 1705.08 316.197 1705.08 300.689Z" fill="#394149"/>
</svg>
