<svg viewBox="0 0 1426 912" fill="none" xmlns="http://www.w3.org/2000/svg">
<path fill-rule="evenodd" clip-rule="evenodd" d="M1393.04 209.219C1417.36 274.425 1425.95 356.024 1425.95 454.158C1425.95 552.817 1417.36 634.848 1393.08 700.437C1368.55 766.693 1329.85 811.289 1275.49 841.745C1221.45 872.015 1150.34 889.219 1058.7 899.035C966.857 908.873 853.141 911.391 713.38 911.391C573.466 911.391 459.635 908.873 367.708 899.035C275.978 889.219 204.815 872.016 150.739 841.747C96.3348 811.294 57.6189 766.7 33.0783 700.443C8.78511 634.851 0.193848 552.816 0.193848 454.158C0.193848 356.024 8.78902 274.422 33.1135 209.213C57.6766 143.364 96.4082 99.1504 150.788 68.9974C204.851 39.0207 276.001 22.0272 367.725 12.3485C459.644 2.64913 573.469 0.199219 713.38 0.199219C853.138 0.199219 966.849 2.64912 1058.68 12.3486C1150.32 22.0274 1221.41 39.0213 1275.44 68.9996C1329.78 99.1547 1368.49 143.371 1393.04 209.219ZM900.547 609.146C910.95 573.333 917.597 523.657 917.597 454.158C917.597 386.699 910.975 338.252 900.584 303.13C890.331 268.477 875.85 244.871 858.038 228.335C821.004 193.953 770.014 190.059 713.38 190.059C679.736 190.059 649.944 190.903 623.881 196.324C597.808 201.746 576.818 211.516 560.324 227.885C529.687 258.288 508.547 317.862 508.547 454.158C508.547 594.658 529.811 654.71 560.488 684.867C577.041 701.14 598.16 710.647 624.529 715.802C650.895 720.957 681.045 721.531 715.232 721.531C771.145 721.531 821.52 718.67 858.255 684.496C875.872 668.108 890.295 644.439 900.547 609.146ZM1406.83 454.158C1406.83 73.3035 1272.34 34.0176 713.38 34.0176C153.808 34.0176 19.3137 73.3035 19.3137 454.158C19.3137 837.195 153.808 877.573 713.38 877.573C1272.34 877.573 1406.83 837.195 1406.83 454.158ZM936.716 454.158C936.716 746.62 825.048 755.35 715.232 755.35C578.886 755.35 489.428 746.62 489.428 454.158C489.428 169.336 578.886 156.24 713.38 156.24C825.048 156.24 936.716 169.336 936.716 454.158Z" fill="#393939"/>
</svg>
