<svg viewBox="0 0 1441 833" fill="none" xmlns="http://www.w3.org/2000/svg">
<path fill-rule="evenodd" clip-rule="evenodd" d="M1199.27 585.347C1347.35 550.262 1384.68 474.182 1384.68 331.127C1384.68 92.1384 1342.72 34.3008 849.782 34.3008H19.3689V798.193H467.274V612.676C467.274 612.676 538.223 612.676 620.894 611.585L820.786 798.193H1369.25L1167.51 591.942C1178.62 589.928 1189.2 587.732 1199.27 585.347ZM1225.87 612.544C1283.24 595.823 1324.53 571.031 1352.88 534.222C1391.98 483.46 1403.8 413.834 1403.8 331.127C1403.8 270.892 1401.33 215.095 1387.33 168.151C1372.76 119.285 1347.41 85.1607 1308.36 61.1496C1269.85 37.475 1216.35 22.5477 1142.67 13.3379C1068.72 4.09511 973.132 0.482422 849.782 0.482422H0.25V832.011H486.393V646.461C493.612 646.441 502.654 646.409 513.135 646.358C540.134 646.227 576.689 645.97 616.224 645.465L816.05 832.011H1440.54L1225.87 612.544ZM467.274 157.615H764.026C886.799 157.615 914.562 177.258 914.562 320.215C914.562 474.084 889.267 490.453 764.026 490.453H467.274V157.615ZM486.393 456.635H764.026C795.307 456.635 819.435 455.593 838.266 451.881C857.272 448.135 868.938 441.979 876.423 434.036C888.599 421.114 895.443 397.12 895.443 320.215C895.443 250.442 888.399 227.498 875.768 214.587C867.95 206.596 856.001 200.38 837.14 196.511C818.437 192.675 794.612 191.433 764.026 191.433H486.393V456.635Z" fill="#393939"/>
</svg>
