<svg viewBox="0 0 1427 912" fill="none" xmlns="http://www.w3.org/2000/svg">
<path fill-rule="evenodd" clip-rule="evenodd" d="M721.293 589.465V400.697H1426.45V434.515C1426.45 533.248 1417.85 616.232 1393.73 683.456C1369.38 751.338 1330.88 798.581 1276.43 831.667C1222.33 864.539 1151.16 884.261 1059.42 895.941C967.489 907.644 853.713 911.391 713.883 911.391C573.969 911.391 460.138 908.873 368.211 899.035C276.481 889.219 205.317 872.016 151.242 841.747C96.8373 811.294 58.1213 766.7 33.5813 700.443C9.2877 634.851 0.696777 552.816 0.696777 454.158C0.696777 356.024 9.29135 274.422 33.6157 209.213C58.1789 143.364 96.9109 99.1504 151.291 68.9974C205.353 39.0207 276.504 22.0272 368.227 12.3485C460.146 2.64913 573.972 0.199219 713.883 0.199219C962.473 0.199219 1129.71 7.93711 1238.5 51.5055C1293.2 73.4121 1335.15 105.081 1365.55 152.227C1396.42 200.097 1413.77 261.384 1421.8 336.569L1426.09 376.667H915.077L911.764 350.146C906.186 305.505 896.91 275.674 885.794 255.078C874.677 234.48 860.586 221.016 843.439 212.359C813.712 197.35 778.27 197.905 738.384 198.53C730.195 198.658 721.819 198.789 713.267 198.789C679.551 198.789 649.821 198.818 623.677 203.159C597.532 207.501 576.627 215.95 560.251 231.09C544.422 245.725 532.089 267.269 523.398 300.997C514.468 335.652 509.05 384.55 509.05 454.158C509.05 524.627 514.475 574.166 523.459 609.3C532.203 643.492 544.621 665.305 560.583 680.113C577.1 695.435 598.221 703.986 624.716 708.379C651.207 712.772 681.4 712.801 715.734 712.801C764.744 712.801 815.749 712.474 854.593 690.532C873.619 679.785 888.136 664.644 897.904 644.215C904.519 630.38 909.62 612.74 912.108 589.465H721.293ZM932.9 555.647C932.9 567.659 932.422 578.916 931.501 589.465C917.786 746.62 805.924 746.62 715.734 746.62C579.389 746.62 489.931 746.62 489.931 454.158C489.931 164.971 579.389 164.971 713.267 164.971C721.291 164.971 729.316 164.834 737.299 164.698C825.062 163.205 907.812 161.796 930.432 342.848H1403.02C1401.76 331.143 1400.28 319.876 1398.55 309.03C1359.2 63.0482 1191.33 34.0176 713.883 34.0176C154.311 34.0176 19.8159 73.3035 19.8159 454.158C19.8159 837.195 154.311 877.573 713.883 877.573C1255.96 877.573 1398.83 821.122 1406.96 468.334C1407.21 457.35 1407.33 446.08 1407.33 434.515H740.412V555.647H932.9Z" fill="#393939"/>
</svg>
