<svg width="2135" height="766" viewBox="0 0 2135 766" fill="none" xmlns="http://www.w3.org/2000/svg">
<path fill-rule="evenodd" clip-rule="evenodd" d="M2085.28 176.363C2121.67 231.097 2134.54 299.592 2134.54 381.967C2134.54 464.781 2121.68 533.639 2085.33 588.695C2048.61 644.31 1990.68 681.745 1909.29 707.31C1828.4 732.719 1721.95 747.16 1584.76 755.4C1447.27 763.658 1277.04 765.771 1067.81 765.771C858.36 765.771 687.953 763.658 550.338 755.4C413.016 747.16 306.484 732.72 225.532 707.312C144.088 681.749 86.1299 644.317 49.3933 588.7C13.0255 533.642 0.164795 464.781 0.164795 381.967C0.164795 299.592 13.0309 231.094 49.4447 176.358C86.2161 121.084 144.198 83.9705 225.606 58.6599C306.537 33.4972 413.052 19.2327 550.362 11.1084C687.966 2.96662 858.365 0.910156 1067.81 0.910156C1277.03 0.910156 1447.26 2.96662 1584.73 11.1085C1721.91 19.2329 1828.34 33.4977 1909.22 58.6617C1990.57 83.9742 2048.52 121.09 2085.28 176.363ZM1348 512.065C1363.58 482.003 1373.53 440.304 1373.53 381.967C1373.53 325.341 1363.61 284.674 1348.06 255.192C1332.71 226.105 1311.03 206.289 1284.37 192.409C1228.93 163.549 1152.59 160.28 1067.81 160.28C1017.45 160.28 972.848 160.988 933.831 165.539C894.801 170.09 863.377 178.291 838.685 192.031C792.821 217.551 761.175 267.559 761.175 381.967C761.175 499.904 793.007 550.311 838.931 575.626C863.711 589.285 895.325 597.265 934.802 601.593C974.271 605.92 1019.41 606.402 1070.58 606.402C1154.29 606.402 1229.7 604 1284.69 575.314C1311.06 561.558 1332.66 541.69 1348 512.065ZM2105.92 381.967C2105.92 62.2745 1904.58 29.2976 1067.81 29.2976C230.126 29.2976 28.7863 62.2745 28.7863 381.967C28.7863 703.491 230.126 737.384 1067.81 737.384C1904.58 737.384 2105.92 703.491 2105.92 381.967ZM1402.15 381.967C1402.15 627.461 1234.98 634.789 1070.58 634.789C866.473 634.789 732.554 627.461 732.554 381.967C732.554 142.885 866.473 131.892 1067.81 131.892C1234.98 131.892 1402.15 142.885 1402.15 381.967Z" fill="#393939"/>
</svg>
